<?xml version="1.0" standalone="no"?>
<!DOCTYPE svg PUBLIC "-//W3C//DTD SVG 20010904//EN"
 "http://www.w3.org/TR/2001/REC-SVG-20010904/DTD/svg10.dtd">
<svg version="1.0" xmlns="http://www.w3.org/2000/svg"
 width="512.000000pt" height="512.000000pt" viewBox="0 0 512.000000 512.000000"
 preserveAspectRatio="xMidYMid meet">

<g transform="translate(0.000000,512.000000) scale(0.100000,-0.100000)"
fill="#000000" stroke="none">
<path d="M2433 5105 c-34 -7 -82 -23 -107 -34 -26 -11 -428 -246 -894 -522
-801 -476 -851 -507 -923 -578 -88 -88 -150 -200 -174 -316 -22 -104 -22
-2086 0 -2190 25 -119 86 -228 179 -320 78 -77 113 -99 913 -573 458 -271 857
-504 887 -518 150 -69 341 -69 489 -1 29 13 381 219 782 457 402 238 780 462
840 498 188 112 291 234 347 412 l23 75 0 1060 c0 1172 3 1106 -66 1253 -47
98 -137 199 -232 260 -131 85 -1625 967 -1683 994 -117 54 -255 70 -381 43z
m204 -105 c34 -6 84 -19 110 -31 26 -11 421 -242 877 -512 682 -404 842 -503
896 -554 71 -66 117 -141 143 -230 l16 -53 -37 39 c-24 25 -53 43 -81 51 -91
24 -91 24 -971 -519 -448 -277 -839 -522 -869 -544 -83 -61 -139 -125 -174
-197 l-32 -65 -3 -1038 c-1 -680 1 -1052 8 -1076 13 -50 48 -101 88 -128 l33
-22 -43 -6 c-52 -8 -145 6 -213 32 -28 11 -184 98 -345 195 -162 96 -529 314
-815 483 -286 169 -538 320 -560 335 -113 78 -205 220 -225 350 -13 88 -13
2012 0 2100 20 129 112 273 222 348 102 69 1678 998 1723 1015 90 34 159 42
252 27z m593 -2777 c0 -68 2 -74 18 -68 9 4 42 9 72 12 85 8 88 -2 49 -149
l-10 -38 -57 0 c-106 0 -199 -63 -222 -152 -24 -87 7 -116 131 -124 158 -11
209 -57 217 -195 2 -43 -1 -101 -8 -131 -19 -82 -76 -191 -131 -248 l-49 -51
0 -70 c0 -39 -4 -79 -10 -89 -10 -18 -90 -70 -109 -70 -7 0 -11 29 -11 76 0
69 -2 75 -17 69 -29 -12 -157 -17 -171 -7 -12 8 -12 20 -2 68 7 33 18 73 25
91 13 31 14 32 69 26 135 -14 255 89 256 220 0 77 -20 89 -168 101 -114 10
-164 50 -182 144 -11 59 1 147 31 227 21 57 98 168 130 188 16 10 19 25 19 84
0 39 3 79 6 88 8 20 104 86 116 79 4 -3 8 -39 8 -81z m860 -856 c0 -78 0 -78
-221 -212 -115 -69 -213 -124 -219 -120 -14 9 -12 108 3 127 17 23 419 258
429 252 4 -3 8 -24 8 -47z"/>
</g>
</svg>
