<?xml version="1.0" encoding="UTF-8"?>
<svg version="1.1" xmlns="http://www.w3.org/2000/svg" width="512" height="512">
<path d="M0 0 C17.29889932 8.499953 31.13042069 22.99120994 38.1640625 40.9765625 C39.39752296 44.88444189 40 47.86349815 40 52 C41.13566406 51.84015625 42.27132813 51.6803125 43.44140625 51.515625 C64.46034295 48.91191749 84.55264456 51.39913218 102 64 C100.41773737 77.98378052 90.00681123 90.60632574 79.34375 99.12109375 C64.54905007 109.23805767 47.52827508 111.52410125 30 111 C29.85884766 111.99773437 29.85884766 111.99773437 29.71484375 113.015625 C28.80163182 116.82816005 27.23992744 120.22724093 25.5625 123.75 C25.20833008 124.49443359 24.85416016 125.23886719 24.48925781 126.00585938 C14.94999632 145.68006912 2.56382765 163.71777095 -12 180 C-12.50063965 180.56235352 -13.0012793 181.12470703 -13.51708984 181.70410156 C-19.3365778 188.21156286 -25.20941489 194.48846346 -32 200 C-33.05232864 200.88773012 -34.10438661 201.77578115 -35.15625 202.6640625 C-55.41330949 219.54448222 -78.34653289 231.87955622 -103 241 C-104.09900635 241.41161377 -104.09900635 241.41161377 -105.22021484 241.83154297 C-132.03498644 251.74681525 -161.32996938 257.00679063 -189.9140625 257.23828125 C-190.91906296 257.2480751 -191.92406342 257.25786896 -192.95951843 257.26795959 C-234.78247719 257.59220924 -234.78247719 257.59220924 -253 253 C-254.2996167 252.68651611 -254.2996167 252.68651611 -255.62548828 252.36669922 C-289.4699756 243.97316577 -318.87711554 223.61796127 -337.32958984 193.85546875 C-344.96864691 181.00290505 -349.9650394 167.35729079 -354 153 C-354.24008789 152.15308594 -354.48017578 151.30617188 -354.72753906 150.43359375 C-359.58080539 132.40924251 -360.22933405 110.38240179 -357 92 C-356.31626942 91.99940291 -355.63253883 91.99880582 -354.92808914 91.99819064 C-314.36055282 91.9622585 -273.7930927 91.90556095 -233.22562516 91.82207905 C-228.3493103 91.81206218 -223.47299511 91.80221795 -218.59667969 91.79248047 C-217.62593624 91.7905391 -216.65519279 91.78859772 -215.65503287 91.78659752 C-199.95865256 91.75561783 -184.26228684 91.73860814 -168.56588173 91.72680578 C-152.44726606 91.71437331 -136.32872675 91.68682469 -120.2101593 91.64538693 C-110.27259124 91.62031146 -100.3351499 91.60687837 -90.39754975 91.60857043 C-83.57319694 91.60860029 -76.74897274 91.59388245 -69.9246701 91.56783572 C-65.99359021 91.55325888 -62.06277402 91.54492687 -58.13167191 91.55419731 C-33.20823078 92.91897448 -33.20823078 92.91897448 -11 84 C-11.33773438 83.29875 -11.67546875 82.5975 -12.0234375 81.875 C-12.46945312 80.92625 -12.91546875 79.9775 -13.375 79 C-13.81585938 78.071875 -14.25671875 77.14375 -14.7109375 76.1875 C-21.66857325 58.98316432 -20.13400457 37.83006652 -13 21 C-9.38770271 13.45899981 -5.32621372 6.45779026 0 0 Z " fill="#099BEC" transform="translate(384,160)"/>
<path d="M0 0 C15.84 0 31.68 0 48 0 C48 14.85 48 29.7 48 45 C32.16 45 16.32 45 0 45 C0 30.15 0 15.3 0 0 Z " fill="#089CEC" transform="translate(230,94)"/>
<path d="M0 0 C16.17 0 32.34 0 49 0 C49 14.52 49 29.04 49 44 C32.83 44 16.66 44 0 44 C0 29.48 0 14.96 0 0 Z " fill="#089BEB" transform="translate(173,147)"/>
<path d="M0 0 C16.17 0 32.34 0 49 0 C49 14.52 49 29.04 49 44 C32.83 44 16.66 44 0 44 C0 29.48 0 14.96 0 0 Z " fill="#089BEB" transform="translate(117,147)"/>
<path d="M0 0 C15.84 0 31.68 0 48 0 C48 14.52 48 29.04 48 44 C32.16 44 16.32 44 0 44 C0 29.48 0 14.96 0 0 Z " fill="#089BEB" transform="translate(230,147)"/>
<path d="M0 0 C16.17 0 32.34 0 49 0 C49 14.19 49 28.38 49 43 C32.83 43 16.66 43 0 43 C0 28.81 0 14.62 0 0 Z " fill="#089CEB" transform="translate(173,199)"/>
<path d="M0 0 C16.17 0 32.34 0 49 0 C49 14.19 49 28.38 49 43 C32.83 43 16.66 43 0 43 C0 28.81 0 14.62 0 0 Z " fill="#089BEB" transform="translate(117,199)"/>
<path d="M0 0 C16.17 0 32.34 0 49 0 C49 14.19 49 28.38 49 43 C32.83 43 16.66 43 0 43 C0 28.81 0 14.62 0 0 Z " fill="#099BEB" transform="translate(61,199)"/>
<path d="M0 0 C15.84 0 31.68 0 48 0 C48 14.19 48 28.38 48 43 C32.16 43 16.32 43 0 43 C0 28.81 0 14.62 0 0 Z " fill="#089BEB" transform="translate(286,199)"/>
<path d="M0 0 C15.84 0 31.68 0 48 0 C48 14.19 48 28.38 48 43 C32.16 43 16.32 43 0 43 C0 28.81 0 14.62 0 0 Z " fill="#089BEB" transform="translate(230,199)"/>
</svg>
