<?xml version="1.0" encoding="UTF-8"?>
<svg version="1.1" xmlns="http://www.w3.org/2000/svg" width="348" height="348">
<path d="M0 0 C114.84 0 229.68 0 348 0 C348 114.84 348 229.68 348 348 C233.16 348 118.32 348 0 348 C0 233.16 0 118.32 0 0 Z " fill="#FCFCFC" transform="translate(0,0)"/>
<path d="M0 0 C3.52235952 1.93638135 6.14902627 4.44904901 8.94152141 7.3088578 C9.55146028 7.91311342 10.16139916 8.51736904 10.78982103 9.13993543 C12.81217888 11.14946752 14.81629085 13.17622615 16.82082438 15.20352638 C18.27433641 16.65517293 19.72893519 18.10573203 21.18453288 19.55528724 C25.1211547 23.48195647 29.04206362 27.42397663 32.96002221 31.36925662 C37.0661733 35.49928008 41.18575076 39.61587053 45.30364299 43.73418128 C52.21334187 50.64850391 59.11347552 57.57225376 66.00734782 64.5023545 C73.97739366 72.51417248 81.95949081 80.51381503 89.94879735 88.50642377 C98.45888335 97.02010898 106.96131155 105.54140736 115.4608624 114.0656091 C117.90952238 116.52049667 120.35947601 118.9740872 122.8096664 121.4274472 C126.65750544 125.28118686 130.50009374 129.14008864 134.33866954 133.0030545 C135.74829068 134.42011515 137.15960096 135.83549782 138.57271266 137.24907768 C140.50045371 139.17807677 142.42193276 141.11310429 144.34191203 143.0498246 C145.18338615 143.88767609 145.18338615 143.88767609 146.04185975 144.74245387 C151.34684132 150.12008146 154.27376381 154.82148403 154.63576579 162.36783302 C154.21019244 175.04400289 143.91849384 183.29924799 135.54128337 191.6092881 C134.12718178 193.03017349 132.7141442 194.45211847 131.30208659 195.87503517 C127.48080355 199.71902666 123.64397687 203.54713636 119.80339336 207.37183297 C115.77668363 211.38584007 111.76223714 215.41208242 107.74579692 219.43636024 C101.00023114 226.19100983 94.24422091 232.93507797 87.48220134 239.67325294 C79.67648325 247.45176252 71.8889405 255.24812031 64.11059338 263.05399293 C57.41896914 269.76834316 50.71760499 276.4728553 44.00807756 283.1693154 C40.00640607 287.16321169 36.00814204 291.16036193 32.01864886 295.16642654 C28.26654332 298.93302809 24.50231574 302.68708786 20.728585 306.43201911 C19.34970436 307.8043165 17.97500876 309.18083456 16.60496402 310.56195343 C0.19810408 327.08910871 0.19810408 327.08910871 -10.42673421 327.74283302 C-24.28810345 326.79442354 -34.39224522 312.75317861 -43.61911702 303.5558213 C-45.01263134 302.17022085 -46.40632309 300.78479881 -47.80017781 299.39954078 C-52.35129312 294.87447362 -56.89711222 290.34410601 -61.44235921 285.81314552 C-63.01234748 284.248522 -64.58234212 282.68390488 -66.15234303 281.11929405 C-72.68126633 274.61196461 -79.2087612 268.10320789 -85.73253942 261.59072006 C-95.06214402 252.27737367 -104.40014758 242.97263391 -113.75002337 233.67963696 C-120.3373033 227.13106351 -126.91496501 220.5729274 -133.48556328 214.00761676 C-137.40523544 210.09159387 -141.32896157 206.17984736 -145.26301503 202.27826774 C-148.96105546 198.61032373 -152.64701418 194.93065492 -156.32414556 191.24175346 C-157.67264118 189.89303731 -159.02539892 188.54856657 -160.38276982 187.20878303 C-175.50964487 172.26725764 -175.50964487 172.26725764 -176.30173421 161.80533302 C-175.72195039 151.31527413 -168.16647408 143.96218398 -161.08371663 137.01968849 C-160.10654671 136.04393214 -159.13048281 135.06706713 -158.15543294 134.08919227 C-155.52845433 131.46079017 -152.88644662 128.84799801 -150.24128437 126.23791349 C-147.47094733 123.49901934 -144.71494099 120.74577841 -141.95732808 117.99408424 C-136.74362405 112.79586623 -131.51731712 107.61051638 -126.28626209 102.4297657 C-120.327115 96.52667585 -114.382308 90.60923265 -108.43861163 84.69059241 C-96.22127602 72.52539614 -83.98621907 60.37817875 -71.73923421 48.24283302 C-68.79776659 49.66189683 -66.57157892 51.10312747 -64.1640389 53.32120216 C-63.14343373 54.25972778 -63.14343373 54.25972778 -62.10221028 55.21721351 C-59.01737356 58.11856609 -55.95539753 61.04237213 -52.91110921 63.98624122 C-51.30610872 65.52312627 -49.68436479 67.04272787 -48.04587483 68.54385841 C-33.65972199 81.74231047 -33.65972199 81.74231047 -32.74704671 88.97623146 C-32.65249987 91.92771766 -32.88592171 94.73365481 -33.2968514 97.65420997 C-33.92321037 102.73525331 -32.7995762 106.20182895 -29.73923421 110.24283302 C-26.73392096 113.36693335 -23.63857915 116.29316055 -19.73923421 118.24283302 C-19.5305181 129.98651934 -19.37069592 141.72976313 -19.27292466 153.47492778 C-19.22599339 158.92907327 -19.16236204 164.38194815 -19.06027913 169.83536232 C-18.96234133 175.1004113 -18.90864601 180.36424 -18.88533902 185.63012969 C-18.86873495 187.63691311 -18.83630842 189.64363118 -18.7876637 191.64989364 C-18.41997455 207.44571766 -18.41997455 207.44571766 -21.69507527 211.90710914 C-24.1027596 213.74063575 -24.1027596 213.74063575 -26.50231099 214.98378456 C-30.78558523 217.39461824 -32.42116053 221.68027027 -33.73923421 226.24283302 C-34.78233823 233.99160572 -34.41673396 240.80168582 -29.73923421 247.24283302 C-25.31450445 252.65083605 -19.63317412 255.9530416 -12.73923421 257.11783302 C-5.77584703 257.67653923 0.69159351 255.36865014 6.26076579 251.24283302 C11.82410715 245.80593123 13.84591175 239.97651942 14.69826579 232.30533302 C14.43353132 227.18373914 12.88896499 222.62878246 10.26076579 218.24283302 C8.75071354 217.19476099 7.21316271 216.18560527 5.65554118 215.20962989 C2.40048911 212.38677693 1.01053804 210.26004652 0.46630168 206.05362403 C0.09849451 200.62697589 0.24827409 195.20704203 0.38185954 189.77408302 C0.39866138 187.76772379 0.41146511 185.76132745 0.42044902 183.75491798 C0.45468974 178.49320633 0.54298685 173.23375764 0.64278483 167.97293556 C0.73512194 162.59706693 0.77601426 157.22082986 0.82131267 151.84439552 C0.91761762 141.30955115 1.07106902 130.7763808 1.26076579 120.24283302 C2.35928658 121.1811948 3.4573383 122.12010573 4.55519938 123.05923927 C5.47249324 123.84343238 5.47249324 123.84343238 6.40831828 124.64346778 C11.19607778 128.77712126 15.81110632 133.08836019 20.37941813 137.4620713 C21.63413998 138.64970966 22.90288138 139.82270853 24.1850822 140.98062599 C34.89059423 150.67230658 34.89059423 150.67230658 35.81154704 157.06754005 C35.51076579 160.81314552 35.51076579 160.81314552 34.83889079 164.1964463 C33.77952419 169.77869984 35.6825183 173.79895395 38.67092204 178.42642677 C43.82478301 185.06674409 49.97679656 187.69883693 58.19826579 188.74283302 C65.56729212 188.26548718 72.32425717 185.8146571 77.32326579 180.30533302 C81.61930371 174.72766088 83.35000081 169.29239969 83.26076579 162.24283302 C82.06466905 155.62443106 79.90745088 148.95939195 74.33107829 144.80533302 C67.84278567 140.62240444 63.01038438 140.11087624 55.41701579 140.89712989 C52.28884523 141.03531036 50.14061425 140.98930056 47.69216228 138.91202247 C46.5786115 137.58480793 45.49644846 136.23103422 44.4350822 134.8617295 C41.68427843 131.54847192 38.60749278 128.71574272 35.45217204 125.79361427 C34.19742041 124.60443602 32.94418956 123.41365127 31.69240642 122.22134864 C29.75677678 120.37813764 27.81463582 118.54746761 25.83913493 116.74698341 C14.78248856 106.6344816 14.78248856 106.6344816 13.47585368 100.64468849 C13.51857829 97.19205177 13.51857829 97.19205177 13.94875407 94.12051857 C14.47177868 89.29666013 12.64180363 85.36534189 10.26076579 81.24283302 C7.90658203 78.30310021 7.90658203 78.30310021 5.26076579 76.24283302 C4.62139079 75.68595802 3.98201579 75.12908302 3.32326579 74.55533302 C-1.66450469 71.38129726 -5.23359232 71.25220259 -10.90329671 72.27408302 C-17.70122433 72.37423665 -20.80805235 70.11034993 -25.74991536 65.56534278 C-29.98243377 61.39154932 -34.06027066 57.08929375 -38.11423421 52.74283302 C-39.82967856 50.9570995 -41.54840158 49.17450948 -43.27048421 47.39517677 C-47.46533992 43.04670022 -51.61762823 38.66073851 -55.73923421 34.24283302 C-53.81760631 30.06414909 -50.97595436 27.13857645 -47.77048421 23.90298927 C-46.87807027 22.99703262 -46.87807027 22.99703262 -45.96762776 22.07277381 C-44.70608968 20.79674464 -43.44173507 19.52349473 -42.17478108 18.25284278 C-40.26137685 16.32761252 -38.36745306 14.38454703 -36.47360921 12.44009864 C-25.62124786 1.44154937 -15.58878494 -7.21405413 0 0 Z " fill="#F05133" transform="translate(184.73923420906067,11.757166981697083)"/>
<path d="M0 0 C2.73382347 1.80702329 4.87392829 3.93373392 7.18673611 6.25799465 C7.68890292 6.75986374 8.19106973 7.26173284 8.70845371 7.77881008 C10.38895105 9.46069572 12.06219242 11.14961843 13.73557949 12.83857632 C14.93941927 14.04625466 16.14371538 15.25347826 17.34843349 16.46028042 C19.94149833 19.05966782 22.53142287 21.6621305 25.11900043 24.26698017 C29.21082365 28.38583648 33.31025372 32.49706426 37.41088772 36.60714626 C46.85578464 46.07613997 56.29065339 55.55510548 65.72544765 65.03416348 C74.36985378 73.71892508 83.0163567 82.4015709 91.67099339 91.07613903 C95.74684955 95.16196073 99.81777832 99.25261058 103.8850106 103.34701622 C106.41688894 105.89381685 108.95290715 108.43646397 111.49006557 110.9780035 C112.66529993 112.15698099 113.83880449 113.33768572 115.01043797 114.52024174 C116.61099101 116.13524315 118.21763026 117.7439409 119.82589626 119.35125637 C120.72313632 120.25293765 121.62037638 121.15461893 122.54480553 122.08362389 C127.88979858 126.91950096 132.23194369 128.5238787 139.31980801 128.43061733 C140.21183926 128.42159389 141.10387051 128.41257046 142.02293301 128.40327358 C142.69840176 128.39167202 143.37387051 128.38007046 144.06980801 128.36811733 C144.06980801 130.67811733 144.06980801 132.98811733 144.06980801 135.36811733 C153.96980801 135.36811733 163.86980801 135.36811733 174.06980801 135.36811733 C174.06980801 130.41811733 174.06980801 125.46811733 174.06980801 120.36811733 C179.01980801 120.36811733 183.96980801 120.36811733 189.06980801 120.36811733 C189.06980801 125.31811733 189.06980801 130.26811733 189.06980801 135.36811733 C194.01980801 135.36811733 198.96980801 135.36811733 204.06980801 135.36811733 C204.06980801 130.41811733 204.06980801 125.46811733 204.06980801 120.36811733 C209.01980801 120.36811733 213.96980801 120.36811733 219.06980801 120.36811733 C219.06980801 125.31811733 219.06980801 130.26811733 219.06980801 135.36811733 C224.01980801 135.36811733 228.96980801 135.36811733 234.06980801 135.36811733 C234.06980801 130.41811733 234.06980801 125.46811733 234.06980801 120.36811733 C239.01980801 120.36811733 243.96980801 120.36811733 249.06980801 120.36811733 C249.06980801 125.31811733 249.06980801 130.26811733 249.06980801 135.36811733 C254.01980801 135.36811733 258.96980801 135.36811733 264.06980801 135.36811733 C264.06980801 130.41811733 264.06980801 125.46811733 264.06980801 120.36811733 C269.01980801 120.36811733 273.96980801 120.36811733 279.06980801 120.36811733 C279.06980801 125.31811733 279.06980801 130.26811733 279.06980801 135.36811733 C284.01980801 135.36811733 288.96980801 135.36811733 294.06980801 135.36811733 C294.06980801 136.35811733 294.06980801 137.34811733 294.06980801 138.36811733 C185.16980801 138.36811733 76.26980801 138.36811733 -35.93019199 138.36811733 C-35.93019199 132.42811733 -35.93019199 126.48811733 -35.93019199 120.36811733 C-30.98019199 120.36811733 -26.03019199 120.36811733 -20.93019199 120.36811733 C-20.93019199 125.31811733 -20.93019199 130.26811733 -20.93019199 135.36811733 C-15.98019199 135.36811733 -11.03019199 135.36811733 -5.93019199 135.36811733 C-5.93019199 130.41811733 -5.93019199 125.46811733 -5.93019199 120.36811733 C-0.98019199 120.36811733 3.96980801 120.36811733 9.06980801 120.36811733 C9.06980801 125.31811733 9.06980801 130.26811733 9.06980801 135.36811733 C14.01980801 135.36811733 18.96980801 135.36811733 24.06980801 135.36811733 C24.06980801 130.41811733 24.06980801 125.46811733 24.06980801 120.36811733 C29.01980801 120.36811733 33.96980801 120.36811733 39.06980801 120.36811733 C39.06980801 125.31811733 39.06980801 130.26811733 39.06980801 135.36811733 C44.01980801 135.36811733 48.96980801 135.36811733 54.06980801 135.36811733 C54.06980801 130.41811733 54.06980801 125.46811733 54.06980801 120.36811733 C59.01980801 120.36811733 63.96980801 120.36811733 69.06980801 120.36811733 C69.06980801 125.31811733 69.06980801 130.26811733 69.06980801 135.36811733 C74.01980801 135.36811733 78.96980801 135.36811733 84.06980801 135.36811733 C84.06980801 130.41811733 84.06980801 125.46811733 84.06980801 120.36811733 C89.01980801 120.36811733 93.96980801 120.36811733 99.06980801 120.36811733 C99.06980801 115.41811733 99.06980801 110.46811733 99.06980801 105.36811733 C94.11980801 105.36811733 89.16980801 105.36811733 84.06980801 105.36811733 C84.06980801 100.41811733 84.06980801 95.46811733 84.06980801 90.36811733 C79.11980801 90.36811733 74.16980801 90.36811733 69.06980801 90.36811733 C69.06980801 85.41811733 69.06980801 80.46811733 69.06980801 75.36811733 C64.11980801 75.36811733 59.16980801 75.36811733 54.06980801 75.36811733 C54.06980801 70.41811733 54.06980801 65.46811733 54.06980801 60.36811733 C49.11980801 60.36811733 44.16980801 60.36811733 39.06980801 60.36811733 C39.06980801 55.41811733 39.06980801 50.46811733 39.06980801 45.36811733 C34.11980801 45.36811733 29.16980801 45.36811733 24.06980801 45.36811733 C24.06980801 40.41811733 24.06980801 35.46811733 24.06980801 30.36811733 C19.11980801 30.36811733 14.16980801 30.36811733 9.06980801 30.36811733 C9.06980801 25.41811733 9.06980801 20.46811733 9.06980801 15.36811733 C4.11980801 15.36811733 -0.83019199 15.36811733 -5.93019199 15.36811733 C-5.93019199 10.41811733 -5.93019199 5.46811733 -5.93019199 0.36811733 C-1.93019199 -0.63188267 -1.93019199 -0.63188267 0 0 Z " fill="#FEFEFE" transform="translate(35.93019199371338,209.6318826675415)"/>
<path d="M0 0 C10.89 0 21.78 0 33 0 C33 114.84 33 229.68 33 348 C27.06 348 21.12 348 15 348 C15 347.01 15 346.02 15 345 C19.95 345 24.9 345 30 345 C30 340.05 30 335.1 30 330 C25.05 330 20.1 330 15 330 C15 325.05 15 320.1 15 315 C19.95 315 24.9 315 30 315 C30 310.05 30 305.1 30 300 C25.05 300 20.1 300 15 300 C15 295.05 15 290.1 15 285 C19.95 285 24.9 285 30 285 C30 280.05 30 275.1 30 270 C25.05 270 20.1 270 15 270 C15 265.05 15 260.1 15 255 C19.95 255 24.9 255 30 255 C30 250.05 30 245.1 30 240 C25.05 240 20.1 240 15 240 C15 235.05 15 230.1 15 225 C19.95 225 24.9 225 30 225 C30 220.05 30 215.1 30 210 C25.05 210 20.1 210 15 210 C15 205.05 15 200.1 15 195 C19.95 195 24.9 195 30 195 C30 190.05 30 185.1 30 180 C28.35 180 26.7 180 25 180 C24.95101563 179.32453125 24.90203125 178.6490625 24.8515625 177.953125 C24.77679688 177.06109375 24.70203125 176.1690625 24.625 175.25 C24.55539062 174.36828125 24.48578125 173.4865625 24.4140625 172.578125 C24.00049238 170.00306575 23.2539692 168.26326148 22 166 C22 165.67 22 165.34 22 165 C24.64 165 27.28 165 30 165 C30 160.05 30 155.1 30 150 C25.05 150 20.1 150 15 150 C15 145.05 15 140.1 15 135 C19.95 135 24.9 135 30 135 C30 130.05 30 125.1 30 120 C25.05 120 20.1 120 15 120 C15 115.05 15 110.1 15 105 C19.95 105 24.9 105 30 105 C30 100.05 30 95.1 30 90 C25.05 90 20.1 90 15 90 C15 85.05 15 80.1 15 75 C19.95 75 24.9 75 30 75 C30 70.05 30 65.1 30 60 C25.05 60 20.1 60 15 60 C15 55.05 15 50.1 15 45 C19.95 45 24.9 45 30 45 C30 40.05 30 35.1 30 30 C25.05 30 20.1 30 15 30 C15 25.05 15 20.1 15 15 C10.05 15 5.1 15 0 15 C0 10.05 0 5.1 0 0 Z " fill="#F0F0F0" transform="translate(315,0)"/>
<path d="M0 0 C4.95 0 9.9 0 15 0 C15 4.95 15 9.9 15 15 C19.95 15 24.9 15 30 15 C30 19.95 30 24.9 30 30 C34.95 30 39.9 30 45 30 C45 34.95 45 39.9 45 45 C49.95 45 54.9 45 60 45 C60 49.95 60 54.9 60 60 C55.38 60 50.76 60 46 60 C46 62.31 46 64.62 46 67 C45.67 67 45.34 67 45 67 C45.20302734 66.05962891 45.40605469 65.11925781 45.61523438 64.15039062 C46.4256474 58.61072778 46.60821821 53.58518343 43.56445312 48.69238281 C38.77942117 42.74527167 33.10840857 37.6524229 27.5 32.5 C25.81016675 30.89052699 24.12392661 29.27727252 22.44140625 27.66015625 C18.33476726 23.72879435 14.18592368 19.84674272 10 16 C6.79018877 17.41116452 4.67859216 19.08930858 2.23199463 21.58805847 C1.49761169 22.33269852 0.76322876 23.07733856 0.0065918 23.84454346 C-1.18728149 25.07041168 -1.18728149 25.07041168 -2.40527344 26.32104492 C-3.25132141 27.18125748 -4.09736938 28.04147003 -4.96905518 28.92774963 C-6.80659199 30.79634194 -8.64230585 32.66656556 -10.47563934 34.53926659 C-13.37647024 37.50062684 -16.28874 40.45055439 -19.20367432 43.39802551 C-20.20231835 44.40807428 -21.20095646 45.41812892 -22.19958878 46.42818928 C-22.69961174 46.93391393 -23.19963471 47.43963859 -23.71480989 47.96068823 C-30.49724832 54.82214023 -37.27032911 61.69253413 -44.01855469 68.58764648 C-48.57394794 73.24201343 -53.14516775 77.88018527 -57.73507333 82.50052911 C-60.16219429 84.94509381 -62.58032908 87.39728075 -64.97917938 89.86961937 C-67.65428791 92.62648542 -70.36386092 95.34781316 -73.07714844 98.06713867 C-73.86496704 98.89045685 -74.65278564 99.71377502 -75.46447754 100.56204224 C-80.8412664 105.87046116 -80.8412664 105.87046116 -84.33094025 106.26058388 C-86.55767822 105.99580383 -86.55767822 105.99580383 -90 105 C-90 100.05 -90 95.1 -90 90 C-85.05 90 -80.1 90 -75 90 C-75 85.05 -75 80.1 -75 75 C-70.05 75 -65.1 75 -60 75 C-60 70.05 -60 65.1 -60 60 C-55.05 60 -50.1 60 -45 60 C-45 55.05 -45 50.1 -45 45 C-40.05 45 -35.1 45 -30 45 C-30 40.05 -30 35.1 -30 30 C-25.05 30 -20.1 30 -15 30 C-15 25.05 -15 20.1 -15 15 C-10.05 15 -5.1 15 0 15 C0 10.05 0 5.1 0 0 Z " fill="#FEFEFE" transform="translate(105,45)"/>
<path d="M0 0 C4.62 0 9.24 0 14 0 C14 4.95 14 9.9 14 15 C18.95 15 23.9 15 29 15 C29 19.95 29 24.9 29 30 C24.71 30 20.42 30 16 30 C16 54.75 16 79.5 16 105 C20.29 105 24.58 105 29 105 C29 109.95 29 114.9 29 120 C24.05 120 19.1 120 14 120 C14 124.95 14 129.9 14 135 C9.05 135 4.1 135 -1 135 C0.81534492 128.4445878 2.85086062 123.57964931 8 119 C8.8463652 118.65321701 9.69273041 118.30643402 10.56474304 117.94914246 C13.4174895 116.10982047 13.4174895 116.10982047 13.63923645 112.18452454 C13.67152471 110.55862574 13.67611937 108.93204187 13.65942383 107.3059082 C13.66990753 106.4178952 13.68039124 105.5298822 13.69119263 104.61495972 C13.72001938 101.67654811 13.71364222 98.73930935 13.70703125 95.80078125 C13.72014167 93.76481137 13.73544386 91.72885452 13.75285339 89.69291687 C13.79279297 84.33182957 13.80289962 78.97108182 13.80688477 73.60986328 C13.81619932 68.1401941 13.8536023 62.67072584 13.88867188 57.20117188 C13.95333896 46.46745737 13.98650425 35.73389224 14 25 C12.82171631 24.54862671 12.82171631 24.54862671 11.61962891 24.08813477 C6.77451924 22.07558548 3.25987632 18.42976147 0.8515625 13.78515625 C-1.00174038 8.81184347 -1.2048276 5.14789976 0 0 Z " fill="#EEEEEE" transform="translate(151,105)"/>
<path d="M0 0 C1.30965361 1.26681618 2.596376 2.55741092 3.87109375 3.859375 C4.83364921 4.79840768 5.79852484 5.73506527 6.76513672 6.66992188 C9.56055056 9.38437952 12.32531069 12.12789524 15.08032227 14.88330078 C16.82355535 16.62431758 18.57467595 18.35714437 20.32617188 20.08984375 C21.4340812 21.19482397 22.54152073 22.30027548 23.6484375 23.40625 C24.1733226 23.92394958 24.6982077 24.44164917 25.23899841 24.97503662 C28.87109375 28.63051348 28.87109375 28.63051348 28.87109375 30.859375 C29.67546875 30.67375 30.47984375 30.488125 31.30859375 30.296875 C32.15421875 30.1525 32.99984375 30.008125 33.87109375 29.859375 C34.87109375 30.859375 34.87109375 30.859375 34.96875 33.80078125 C34.93619792 37.15364583 34.90364583 40.50651042 34.87109375 43.859375 C29.92109375 43.859375 24.97109375 43.859375 19.87109375 43.859375 C19.87109375 38.909375 19.87109375 33.959375 19.87109375 28.859375 C14.92109375 28.859375 9.97109375 28.859375 4.87109375 28.859375 C4.87109375 23.909375 4.87109375 18.959375 4.87109375 13.859375 C-0.07890625 13.859375 -5.02890625 13.859375 -10.12890625 13.859375 C-10.12890625 8.909375 -10.12890625 3.959375 -10.12890625 -1.140625 C-3.12890625 -2.140625 -3.12890625 -2.140625 0 0 Z " fill="#EEEEEE" transform="translate(205.12890625,121.140625)"/>
<path d="M0 0 C7.48876106 -0.92878098 7.48876106 -0.92878098 11.24761963 1.38134766 C13.61858187 3.42886148 15.81876148 5.57138697 18.0078125 7.8125 C18.81870331 8.61478027 19.62959412 9.41706055 20.46505737 10.24365234 C22.16845064 11.94093627 23.86059125 13.64957927 25.54199219 15.36865234 C28.12054146 17.99545802 30.74366804 20.5707228 33.375 23.14453125 C35.02633143 24.80180898 36.67486933 26.4618759 38.3203125 28.125 C39.10657013 28.89303955 39.89282776 29.6610791 40.70291138 30.45239258 C45.87594684 35.83160584 45.87594684 35.83160584 46.24749756 39.33105469 C45.97998047 41.5546875 45.97998047 41.5546875 45 45 C40.05 45 35.1 45 30 45 C30 40.05 30 35.1 30 30 C25.05 30 20.1 30 15 30 C15 25.05 15 20.1 15 15 C10.05 15 5.1 15 0 15 C0 10.05 0 5.1 0 0 Z " fill="#EEEEEE" transform="translate(120,45)"/>
<path d="M0 0 C0.33 1.32 0.66 2.64 1 4 C5.29 4 9.58 4 14 4 C14 8.95 14 13.9 14 19 C9.71 19 5.42 19 1 19 C1 23.95 1 28.9 1 34 C5.29 34 9.58 34 14 34 C14 38.95 14 43.9 14 49 C9.71 49 5.42 49 1 49 C1 53.95 1 58.9 1 64 C5.29 64 9.58 64 14 64 C14 68.95 14 73.9 14 79 C9.71 79 5.42 79 1 79 C1 81.97 1 84.94 1 88 C0.67 88 0.34 88 0 88 C0 58.96 0 29.92 0 0 Z " fill="#FFFFFF" transform="translate(166,131)"/>
<path d="M0 0 C4.95 0 9.9 0 15 0 C15 4.95 15 9.9 15 15 C19.95 15 24.9 15 30 15 C30 19.62 30 24.24 30 29 C23.02666245 30.66753724 17.32731918 29.21806496 10.98046875 25.96484375 C5.43027494 22.39772572 2.06766326 17.20298979 0 11 C-0.13281695 7.32893957 -0.04323297 3.67480286 0 0 Z " fill="#FEFEFE" transform="translate(150,240)"/>
<path d="M0 0 C4.53560484 0.86778201 6.90366911 3.48792273 10.05497742 6.68075562 C10.95946891 7.5792855 10.95946891 7.5792855 11.88223296 8.49596751 C13.90615337 10.51024354 15.91915093 12.53509396 17.93237305 14.56005859 C19.37896849 16.00422681 20.82620923 17.44774889 22.27404785 18.89067078 C26.20839391 22.81559536 30.1332429 26.74989274 34.05622077 30.68617582 C38.15761085 34.79886323 42.26669094 38.90385434 46.37471008 43.00991821 C53.27236117 49.90668583 60.16399977 56.80941683 67.05200195 63.71582031 C75.02321332 71.70820425 83.00322285 79.69171811 90.98814553 87.67040193 C98.66018222 95.33675032 106.32654518 103.00874703 113.99012184 110.68355179 C117.2559031 113.95398567 120.52357074 117.22251767 123.79273033 120.48957443 C127.63946949 124.33443438 131.48119629 128.18423316 135.31905365 132.03795815 C136.73110617 133.45426468 138.14487345 134.86886389 139.56044197 136.28165627 C141.48694464 138.20495263 143.40721955 140.13425486 145.32597351 142.0652771 C145.89230159 142.62782586 146.45862967 143.19037461 147.0421192 143.7699703 C149.41284759 146.16772565 150.91832502 147.75497505 152 151 C147.84557511 149.36386362 145.05980311 146.33849433 141.97625732 143.23022461 C141.37664098 142.63372825 140.77702464 142.03723188 140.1592381 141.42265987 C138.14922124 139.42062691 136.14643644 137.41151297 134.14355469 135.40234375 C132.70497408 133.96647277 131.26596825 132.53102771 129.8265686 131.09597778 C125.91727233 127.1958095 122.0143412 123.28932882 118.11277676 119.38142776 C114.03449294 115.29808806 109.95134047 111.2196216 105.86895752 107.14038086 C99.01580484 100.2908682 92.16688359 93.43714566 85.3203125 86.58105469 C77.3942038 78.64405271 69.46090389 70.71429332 61.52384639 62.78824139 C54.71759507 55.99105158 47.91523103 49.18999002 41.11613011 42.38564777 C37.05160494 38.31799775 32.98572441 34.25172727 28.91634369 30.18893433 C25.09351949 26.37186676 21.27558146 22.54997964 17.46143723 18.72423935 C16.05703294 17.31717981 14.65090406 15.91183931 13.24297714 14.5083046 C11.32927766 12.60002774 9.42177846 10.68576736 7.51580811 8.76977539 C6.66778315 7.9284426 6.66778315 7.9284426 5.80262637 7.07011318 C2 3.22830043 2 3.22830043 2 1 C1.34 0.67 0.68 0.34 0 0 Z " fill="#F15C40" transform="translate(184,13)"/>
<path d="M0 0 C4.95 0 9.9 0 15 0 C16.13256867 3.23591049 16.55756138 4.68309193 16 8 C13.46731723 11.75791355 10.42016476 14.87399532 7.17041016 18.00292969 C5.63132783 19.4938701 4.14616556 21.02667538 2.66015625 22.5703125 C-4.33272625 29.60237813 -4.33272625 29.60237813 -8.73535156 30.65234375 C-11.2265625 30.65625 -11.2265625 30.65625 -15 30 C-15 25.05 -15 20.1 -15 15 C-10.05 15 -5.1 15 0 15 C0 10.05 0 5.1 0 0 Z " fill="#FFFFFF" transform="translate(135,15)"/>
<path d="M0 0 C4.95 0 9.9 0 15 0 C15 4.95 15 9.9 15 15 C19.95 15 24.9 15 30 15 C30 19.95 30 24.9 30 30 C22.80690329 30.64278737 22.80690329 30.64278737 19.234375 27.796875 C18.41453125 26.79140625 17.5946875 25.7859375 16.75 24.75 C15.8266233 23.64532859 14.89940005 22.54386333 13.96875 21.4453125 C13.25332031 20.59114746 13.25332031 20.59114746 12.5234375 19.71972656 C10.95992399 17.95476035 9.31864059 16.34902845 7.59375 14.7421875 C7.0359082 14.21915039 6.47806641 13.69611328 5.90332031 13.15722656 C4.82081242 12.15400454 3.726686 11.16314169 2.62011719 10.18652344 C1.140625 8.7890625 1.140625 8.7890625 -1 6 C-0.67 4.02 -0.34 2.04 0 0 Z " fill="#FEFEFE" transform="translate(315,135)"/>
<path d="M0 0 C4.95 0 9.9 0 15 0 C15 4.95 15 9.9 15 15 C19.95 15 24.9 15 30 15 C30 19.95 30 24.9 30 30 C28.35 30.33 26.7 30.66 25 31 C22.6546718 29.2677035 20.80681885 27.6485734 18.7890625 25.5859375 C18.2166684 25.01928375 17.64427429 24.45263 17.05453491 23.86880493 C15.84878933 22.66714096 14.6505827 21.45787173 13.45947266 20.24169922 C11.63135253 18.38146413 9.7734648 16.55537886 7.91015625 14.73046875 C6.74286301 13.55921064 5.57743238 12.38609264 4.4140625 11.2109375 C3.85586823 10.66488861 3.29767395 10.11883972 2.7225647 9.5562439 C1.19384766 7.97021484 1.19384766 7.97021484 -1 5 C-0.67 3.35 -0.34 1.7 0 0 Z " fill="#FEFEFE" transform="translate(195,135)"/>
<path d="M0 0 C3.35824576 1.67912288 5.00805684 2.74755642 7.57519531 5.26879883 C8.59580048 6.2654229 8.59580048 6.2654229 9.63702393 7.28218079 C10.36008728 7.99988144 11.08315063 8.71758209 11.828125 9.45703125 C12.95163361 10.56699715 12.95163361 10.56699715 14.09783936 11.6993866 C15.67732376 13.26437739 17.25402311 14.83218334 18.828125 16.40258789 C21.24283282 18.80536822 23.67555661 21.18886486 26.109375 23.57226562 C27.64177144 25.09520147 29.1730599 26.61925316 30.703125 28.14453125 C31.43428528 28.85615921 32.16544556 29.56778717 32.91876221 30.30097961 C33.92045441 31.31178841 33.92045441 31.31178841 34.94238281 32.34301758 C35.53432434 32.92988846 36.12626587 33.51675934 36.73614502 34.12141418 C38.35730509 36.53109595 38.23931792 38.15545314 38 41 C36 38 36 38 36 36 C35.34 36 34.68 36 34 36 C34 35.34 34 34.68 34 34 C33.34 34 32.68 34 32 34 C32 33.34 32 32.68 32 32 C31.34 32 30.68 32 30 32 C30 31.34 30 30.68 30 30 C29.34 30 28.68 30 28 30 C28 29.34 28 28.68 28 28 C27.34 28 26.68 28 26 28 C26 27.34 26 26.68 26 26 C25.34 26 24.68 26 24 26 C24 25.34 24 24.68 24 24 C23.34 24 22.68 24 22 24 C22 23.34 22 22.68 22 22 C21.34 22 20.68 22 20 22 C20 21.34 20 20.68 20 20 C19.34 20 18.68 20 18 20 C18 19.34 18 18.68 18 18 C17.34 18 16.68 18 16 18 C16 17.34 16 16.68 16 16 C15.34 16 14.68 16 14 16 C14 15.34 14 14.68 14 14 C13.34 14 12.68 14 12 14 C12 13.34 12 12.68 12 12 C11.34 12 10.68 12 10 12 C10 11.34 10 10.68 10 10 C9.34 10 8.68 10 8 10 C8 9.34 8 8.68 8 8 C7.34 8 6.68 8 6 8 C6 7.34 6 6.68 6 6 C5.34 6 4.68 6 4 6 C4 5.34 4 4.68 4 4 C2.22136719 3.17001978 2.22136719 3.17001978 0 3 C-2.13919115 4.39364643 -2.13919115 4.39364643 -4.16351318 6.5622406 C-4.98518478 7.37703888 -5.80685638 8.19183716 -6.65342712 9.03132629 C-7.99238792 10.39725166 -7.99238792 10.39725166 -9.35839844 11.79077148 C-10.31356744 12.74735035 -11.26983781 13.70283056 -12.22712708 14.6572876 C-14.82696581 17.25568836 -17.41107291 19.86924701 -19.99269772 22.48572803 C-22.69171033 25.21594064 -25.4048345 27.93205403 -28.11651611 30.64967346 C-33.25114965 35.79986415 -38.37290239 40.96267074 -43.49018788 46.13009268 C-49.31586301 52.01160304 -55.15569694 57.87896707 -60.99678373 63.74516571 C-73.01371858 75.81440109 -85.01268536 87.90134649 -97 100 C-97.66 99.67 -98.32 99.34 -99 99 C-66.33 66.33 -33.66 33.66 0 0 Z " fill="#F26B52" transform="translate(113,60)"/>
<path d="M0 0 C4.95 0 9.9 0 15 0 C15 4.95 15 9.9 15 15 C10.05 15 5.1 15 0 15 C0 10.05 0 5.1 0 0 Z " fill="#FFFFFF" transform="translate(330,330)"/>
<path d="M0 0 C4.95 0 9.9 0 15 0 C15 4.95 15 9.9 15 15 C10.05 15 5.1 15 0 15 C0 10.05 0 5.1 0 0 Z " fill="#EEEEEE" transform="translate(315,330)"/>
<path d="M0 0 C4.95 0 9.9 0 15 0 C15 4.95 15 9.9 15 15 C10.05 15 5.1 15 0 15 C0 10.05 0 5.1 0 0 Z " fill="#EEEEEE" transform="translate(285,330)"/>
<path d="M0 0 C4.95 0 9.9 0 15 0 C15 4.95 15 9.9 15 15 C10.05 15 5.1 15 0 15 C0 10.05 0 5.1 0 0 Z " fill="#EEEEEE" transform="translate(255,330)"/>
<path d="M0 0 C4.95 0 9.9 0 15 0 C15 4.95 15 9.9 15 15 C10.05 15 5.1 15 0 15 C0 10.05 0 5.1 0 0 Z " fill="#FFFFFF" transform="translate(240,330)"/>
<path d="M0 0 C4.95 0 9.9 0 15 0 C15 4.95 15 9.9 15 15 C10.05 15 5.1 15 0 15 C0 10.05 0 5.1 0 0 Z " fill="#EEEEEE" transform="translate(225,330)"/>
<path d="M0 0 C4.95 0 9.9 0 15 0 C15 4.95 15 9.9 15 15 C10.05 15 5.1 15 0 15 C0 10.05 0 5.1 0 0 Z " fill="#FFFFFF" transform="translate(210,330)"/>
<path d="M0 0 C4.95 0 9.9 0 15 0 C15 4.95 15 9.9 15 15 C10.05 15 5.1 15 0 15 C0 10.05 0 5.1 0 0 Z " fill="#EEEEEE" transform="translate(195,330)"/>
<path d="M0 0 C4.95 0 9.9 0 15 0 C15 4.95 15 9.9 15 15 C10.05 15 5.1 15 0 15 C0 10.05 0 5.1 0 0 Z " fill="#EEEEEE" transform="translate(135,330)"/>
<path d="M0 0 C4.95 0 9.9 0 15 0 C15 4.95 15 9.9 15 15 C10.05 15 5.1 15 0 15 C0 10.05 0 5.1 0 0 Z " fill="#EEEEEE" transform="translate(105,330)"/>
<path d="M0 0 C4.95 0 9.9 0 15 0 C15 4.95 15 9.9 15 15 C10.05 15 5.1 15 0 15 C0 10.05 0 5.1 0 0 Z " fill="#FFFFFF" transform="translate(90,330)"/>
<path d="M0 0 C4.95 0 9.9 0 15 0 C15 4.95 15 9.9 15 15 C10.05 15 5.1 15 0 15 C0 10.05 0 5.1 0 0 Z " fill="#EEEEEE" transform="translate(75,330)"/>
<path d="M0 0 C4.95 0 9.9 0 15 0 C15 4.95 15 9.9 15 15 C10.05 15 5.1 15 0 15 C0 10.05 0 5.1 0 0 Z " fill="#FFFFFF" transform="translate(60,330)"/>
<path d="M0 0 C4.95 0 9.9 0 15 0 C15 4.95 15 9.9 15 15 C10.05 15 5.1 15 0 15 C0 10.05 0 5.1 0 0 Z " fill="#EEEEEE" transform="translate(45,330)"/>
<path d="M0 0 C4.95 0 9.9 0 15 0 C15 4.95 15 9.9 15 15 C10.05 15 5.1 15 0 15 C0 10.05 0 5.1 0 0 Z " fill="#FFFFFF" transform="translate(30,330)"/>
<path d="M0 0 C4.95 0 9.9 0 15 0 C15 4.95 15 9.9 15 15 C10.05 15 5.1 15 0 15 C0 10.05 0 5.1 0 0 Z " fill="#EEEEEE" transform="translate(15,330)"/>
<path d="M0 0 C4.95 0 9.9 0 15 0 C15 4.95 15 9.9 15 15 C10.05 15 5.1 15 0 15 C0 10.05 0 5.1 0 0 Z " fill="#FFFFFF" transform="translate(315,315)"/>
<path d="M0 0 C4.95 0 9.9 0 15 0 C15 4.95 15 9.9 15 15 C10.05 15 5.1 15 0 15 C0 10.05 0 5.1 0 0 Z " fill="#EEEEEE" transform="translate(300,315)"/>
<path d="M0 0 C4.95 0 9.9 0 15 0 C15 4.95 15 9.9 15 15 C10.05 15 5.1 15 0 15 C0 10.05 0 5.1 0 0 Z " fill="#FFFFFF" transform="translate(285,315)"/>
<path d="M0 0 C4.95 0 9.9 0 15 0 C15 4.95 15 9.9 15 15 C10.05 15 5.1 15 0 15 C0 10.05 0 5.1 0 0 Z " fill="#EEEEEE" transform="translate(270,315)"/>
<path d="M0 0 C4.95 0 9.9 0 15 0 C15 4.95 15 9.9 15 15 C10.05 15 5.1 15 0 15 C0 10.05 0 5.1 0 0 Z " fill="#FFFFFF" transform="translate(255,315)"/>
<path d="M0 0 C4.95 0 9.9 0 15 0 C15 4.95 15 9.9 15 15 C10.05 15 5.1 15 0 15 C0 10.05 0 5.1 0 0 Z " fill="#EEEEEE" transform="translate(240,315)"/>
<path d="M0 0 C4.95 0 9.9 0 15 0 C15 4.95 15 9.9 15 15 C10.05 15 5.1 15 0 15 C0 10.05 0 5.1 0 0 Z " fill="#FFFFFF" transform="translate(225,315)"/>
<path d="M0 0 C4.95 0 9.9 0 15 0 C15 4.95 15 9.9 15 15 C10.05 15 5.1 15 0 15 C0 10.05 0 5.1 0 0 Z " fill="#EEEEEE" transform="translate(210,315)"/>
<path d="M0 0 C4.95 0 9.9 0 15 0 C15 4.95 15 9.9 15 15 C10.05 15 5.1 15 0 15 C0 10.05 0 5.1 0 0 Z " fill="#EEEEEE" transform="translate(120,315)"/>
<path d="M0 0 C4.95 0 9.9 0 15 0 C15 4.95 15 9.9 15 15 C10.05 15 5.1 15 0 15 C0 10.05 0 5.1 0 0 Z " fill="#FFFFFF" transform="translate(105,315)"/>
<path d="M0 0 C4.95 0 9.9 0 15 0 C15 4.95 15 9.9 15 15 C10.05 15 5.1 15 0 15 C0 10.05 0 5.1 0 0 Z " fill="#EEEEEE" transform="translate(90,315)"/>
<path d="M0 0 C4.95 0 9.9 0 15 0 C15 4.95 15 9.9 15 15 C10.05 15 5.1 15 0 15 C0 10.05 0 5.1 0 0 Z " fill="#FFFFFF" transform="translate(75,315)"/>
<path d="M0 0 C4.95 0 9.9 0 15 0 C15 4.95 15 9.9 15 15 C10.05 15 5.1 15 0 15 C0 10.05 0 5.1 0 0 Z " fill="#EEEEEE" transform="translate(60,315)"/>
<path d="M0 0 C4.95 0 9.9 0 15 0 C15 4.95 15 9.9 15 15 C10.05 15 5.1 15 0 15 C0 10.05 0 5.1 0 0 Z " fill="#FFFFFF" transform="translate(45,315)"/>
<path d="M0 0 C4.95 0 9.9 0 15 0 C15 4.95 15 9.9 15 15 C10.05 15 5.1 15 0 15 C0 10.05 0 5.1 0 0 Z " fill="#EEEEEE" transform="translate(30,315)"/>
<path d="M0 0 C4.95 0 9.9 0 15 0 C15 4.95 15 9.9 15 15 C10.05 15 5.1 15 0 15 C0 10.05 0 5.1 0 0 Z " fill="#FFFFFF" transform="translate(15,315)"/>
<path d="M0 0 C4.95 0 9.9 0 15 0 C15 4.95 15 9.9 15 15 C10.05 15 5.1 15 0 15 C0 10.05 0 5.1 0 0 Z " fill="#EEEEEE" transform="translate(0,315)"/>
<path d="M0 0 C4.95 0 9.9 0 15 0 C15 4.95 15 9.9 15 15 C10.05 15 5.1 15 0 15 C0 10.05 0 5.1 0 0 Z " fill="#FFFFFF" transform="translate(330,300)"/>
<path d="M0 0 C4.95 0 9.9 0 15 0 C15 4.95 15 9.9 15 15 C10.05 15 5.1 15 0 15 C0 10.05 0 5.1 0 0 Z " fill="#EEEEEE" transform="translate(315,300)"/>
<path d="M0 0 C4.95 0 9.9 0 15 0 C15 4.95 15 9.9 15 15 C10.05 15 5.1 15 0 15 C0 10.05 0 5.1 0 0 Z " fill="#FFFFFF" transform="translate(300,300)"/>
<path d="M0 0 C4.95 0 9.9 0 15 0 C15 4.95 15 9.9 15 15 C10.05 15 5.1 15 0 15 C0 10.05 0 5.1 0 0 Z " fill="#EEEEEE" transform="translate(285,300)"/>
<path d="M0 0 C4.95 0 9.9 0 15 0 C15 4.95 15 9.9 15 15 C10.05 15 5.1 15 0 15 C0 10.05 0 5.1 0 0 Z " fill="#FFFFFF" transform="translate(270,300)"/>
<path d="M0 0 C4.95 0 9.9 0 15 0 C15 4.95 15 9.9 15 15 C10.05 15 5.1 15 0 15 C0 10.05 0 5.1 0 0 Z " fill="#EEEEEE" transform="translate(255,300)"/>
<path d="M0 0 C4.95 0 9.9 0 15 0 C15 4.95 15 9.9 15 15 C10.05 15 5.1 15 0 15 C0 10.05 0 5.1 0 0 Z " fill="#FFFFFF" transform="translate(240,300)"/>
<path d="M0 0 C4.95 0 9.9 0 15 0 C15 4.95 15 9.9 15 15 C10.05 15 5.1 15 0 15 C0 10.05 0 5.1 0 0 Z " fill="#EEEEEE" transform="translate(225,300)"/>
<path d="M0 0 C4.95 0 9.9 0 15 0 C15 4.95 15 9.9 15 15 C10.05 15 5.1 15 0 15 C0 10.05 0 5.1 0 0 Z " fill="#EEEEEE" transform="translate(105,300)"/>
<path d="M0 0 C4.95 0 9.9 0 15 0 C15 4.95 15 9.9 15 15 C10.05 15 5.1 15 0 15 C0 10.05 0 5.1 0 0 Z " fill="#FFFFFF" transform="translate(90,300)"/>
<path d="M0 0 C4.95 0 9.9 0 15 0 C15 4.95 15 9.9 15 15 C10.05 15 5.1 15 0 15 C0 10.05 0 5.1 0 0 Z " fill="#EEEEEE" transform="translate(75,300)"/>
<path d="M0 0 C4.95 0 9.9 0 15 0 C15 4.95 15 9.9 15 15 C10.05 15 5.1 15 0 15 C0 10.05 0 5.1 0 0 Z " fill="#FFFFFF" transform="translate(60,300)"/>
<path d="M0 0 C4.95 0 9.9 0 15 0 C15 4.95 15 9.9 15 15 C10.05 15 5.1 15 0 15 C0 10.05 0 5.1 0 0 Z " fill="#EEEEEE" transform="translate(45,300)"/>
<path d="M0 0 C4.95 0 9.9 0 15 0 C15 4.95 15 9.9 15 15 C10.05 15 5.1 15 0 15 C0 10.05 0 5.1 0 0 Z " fill="#FFFFFF" transform="translate(30,300)"/>
<path d="M0 0 C4.95 0 9.9 0 15 0 C15 4.95 15 9.9 15 15 C10.05 15 5.1 15 0 15 C0 10.05 0 5.1 0 0 Z " fill="#EEEEEE" transform="translate(15,300)"/>
<path d="M0 0 C4.95 0 9.9 0 15 0 C15 4.95 15 9.9 15 15 C10.05 15 5.1 15 0 15 C0 10.05 0 5.1 0 0 Z " fill="#FFFFFF" transform="translate(0,300)"/>
<path d="M0 0 C4.95 0 9.9 0 15 0 C15 4.95 15 9.9 15 15 C10.05 15 5.1 15 0 15 C0 10.05 0 5.1 0 0 Z " fill="#FFFFFF" transform="translate(315,285)"/>
<path d="M0 0 C4.95 0 9.9 0 15 0 C15 4.95 15 9.9 15 15 C10.05 15 5.1 15 0 15 C0 10.05 0 5.1 0 0 Z " fill="#EEEEEE" transform="translate(300,285)"/>
<path d="M0 0 C4.95 0 9.9 0 15 0 C15 4.95 15 9.9 15 15 C10.05 15 5.1 15 0 15 C0 10.05 0 5.1 0 0 Z " fill="#FFFFFF" transform="translate(285,285)"/>
<path d="M0 0 C4.95 0 9.9 0 15 0 C15 4.95 15 9.9 15 15 C10.05 15 5.1 15 0 15 C0 10.05 0 5.1 0 0 Z " fill="#EEEEEE" transform="translate(270,285)"/>
<path d="M0 0 C4.95 0 9.9 0 15 0 C15 4.95 15 9.9 15 15 C10.05 15 5.1 15 0 15 C0 10.05 0 5.1 0 0 Z " fill="#FFFFFF" transform="translate(255,285)"/>
<path d="M0 0 C4.95 0 9.9 0 15 0 C15 4.95 15 9.9 15 15 C10.05 15 5.1 15 0 15 C0 10.05 0 5.1 0 0 Z " fill="#EEEEEE" transform="translate(240,285)"/>
<path d="M0 0 C4.95 0 9.9 0 15 0 C15 4.95 15 9.9 15 15 C10.05 15 5.1 15 0 15 C0 10.05 0 5.1 0 0 Z " fill="#EEEEEE" transform="translate(90,285)"/>
<path d="M0 0 C4.95 0 9.9 0 15 0 C15 4.95 15 9.9 15 15 C10.05 15 5.1 15 0 15 C0 10.05 0 5.1 0 0 Z " fill="#FFFFFF" transform="translate(75,285)"/>
<path d="M0 0 C4.95 0 9.9 0 15 0 C15 4.95 15 9.9 15 15 C10.05 15 5.1 15 0 15 C0 10.05 0 5.1 0 0 Z " fill="#EEEEEE" transform="translate(60,285)"/>
<path d="M0 0 C4.95 0 9.9 0 15 0 C15 4.95 15 9.9 15 15 C10.05 15 5.1 15 0 15 C0 10.05 0 5.1 0 0 Z " fill="#FFFFFF" transform="translate(45,285)"/>
<path d="M0 0 C4.95 0 9.9 0 15 0 C15 4.95 15 9.9 15 15 C10.05 15 5.1 15 0 15 C0 10.05 0 5.1 0 0 Z " fill="#EEEEEE" transform="translate(30,285)"/>
<path d="M0 0 C4.95 0 9.9 0 15 0 C15 4.95 15 9.9 15 15 C10.05 15 5.1 15 0 15 C0 10.05 0 5.1 0 0 Z " fill="#FFFFFF" transform="translate(15,285)"/>
<path d="M0 0 C4.95 0 9.9 0 15 0 C15 4.95 15 9.9 15 15 C10.05 15 5.1 15 0 15 C0 10.05 0 5.1 0 0 Z " fill="#EEEEEE" transform="translate(0,285)"/>
<path d="M0 0 C4.95 0 9.9 0 15 0 C15 4.95 15 9.9 15 15 C10.05 15 5.1 15 0 15 C0 10.05 0 5.1 0 0 Z " fill="#FFFFFF" transform="translate(330,270)"/>
<path d="M0 0 C4.95 0 9.9 0 15 0 C15 4.95 15 9.9 15 15 C10.05 15 5.1 15 0 15 C0 10.05 0 5.1 0 0 Z " fill="#EEEEEE" transform="translate(315,270)"/>
<path d="M0 0 C4.95 0 9.9 0 15 0 C15 4.95 15 9.9 15 15 C10.05 15 5.1 15 0 15 C0 10.05 0 5.1 0 0 Z " fill="#FFFFFF" transform="translate(300,270)"/>
<path d="M0 0 C4.95 0 9.9 0 15 0 C15 4.95 15 9.9 15 15 C10.05 15 5.1 15 0 15 C0 10.05 0 5.1 0 0 Z " fill="#EEEEEE" transform="translate(285,270)"/>
<path d="M0 0 C4.95 0 9.9 0 15 0 C15 4.95 15 9.9 15 15 C10.05 15 5.1 15 0 15 C0 10.05 0 5.1 0 0 Z " fill="#FFFFFF" transform="translate(270,270)"/>
<path d="M0 0 C4.95 0 9.9 0 15 0 C15 4.95 15 9.9 15 15 C10.05 15 5.1 15 0 15 C0 10.05 0 5.1 0 0 Z " fill="#EEEEEE" transform="translate(255,270)"/>
<path d="M0 0 C4.95 0 9.9 0 15 0 C15 4.95 15 9.9 15 15 C10.05 15 5.1 15 0 15 C0 10.05 0 5.1 0 0 Z " fill="#EEEEEE" transform="translate(75,270)"/>
<path d="M0 0 C4.95 0 9.9 0 15 0 C15 4.95 15 9.9 15 15 C10.05 15 5.1 15 0 15 C0 10.05 0 5.1 0 0 Z " fill="#FFFFFF" transform="translate(60,270)"/>
<path d="M0 0 C4.95 0 9.9 0 15 0 C15 4.95 15 9.9 15 15 C10.05 15 5.1 15 0 15 C0 10.05 0 5.1 0 0 Z " fill="#EEEEEE" transform="translate(45,270)"/>
<path d="M0 0 C4.95 0 9.9 0 15 0 C15 4.95 15 9.9 15 15 C10.05 15 5.1 15 0 15 C0 10.05 0 5.1 0 0 Z " fill="#FFFFFF" transform="translate(30,270)"/>
<path d="M0 0 C4.95 0 9.9 0 15 0 C15 4.95 15 9.9 15 15 C10.05 15 5.1 15 0 15 C0 10.05 0 5.1 0 0 Z " fill="#EEEEEE" transform="translate(15,270)"/>
<path d="M0 0 C4.95 0 9.9 0 15 0 C15 4.95 15 9.9 15 15 C10.05 15 5.1 15 0 15 C0 10.05 0 5.1 0 0 Z " fill="#FFFFFF" transform="translate(0,270)"/>
<path d="M0 0 C4.95 0 9.9 0 15 0 C15 4.95 15 9.9 15 15 C10.05 15 5.1 15 0 15 C0 10.05 0 5.1 0 0 Z " fill="#FFFFFF" transform="translate(315,255)"/>
<path d="M0 0 C4.95 0 9.9 0 15 0 C15 4.95 15 9.9 15 15 C10.05 15 5.1 15 0 15 C0 10.05 0 5.1 0 0 Z " fill="#EEEEEE" transform="translate(300,255)"/>
<path d="M0 0 C4.95 0 9.9 0 15 0 C15 4.95 15 9.9 15 15 C10.05 15 5.1 15 0 15 C0 10.05 0 5.1 0 0 Z " fill="#FFFFFF" transform="translate(285,255)"/>
<path d="M0 0 C4.95 0 9.9 0 15 0 C15 4.95 15 9.9 15 15 C10.05 15 5.1 15 0 15 C0 10.05 0 5.1 0 0 Z " fill="#EEEEEE" transform="translate(270,255)"/>
<path d="M0 0 C4.95 0 9.9 0 15 0 C15 4.95 15 9.9 15 15 C10.05 15 5.1 15 0 15 C0 10.05 0 5.1 0 0 Z " fill="#EEEEEE" transform="translate(60,255)"/>
<path d="M0 0 C4.95 0 9.9 0 15 0 C15 4.95 15 9.9 15 15 C10.05 15 5.1 15 0 15 C0 10.05 0 5.1 0 0 Z " fill="#FFFFFF" transform="translate(45,255)"/>
<path d="M0 0 C4.95 0 9.9 0 15 0 C15 4.95 15 9.9 15 15 C10.05 15 5.1 15 0 15 C0 10.05 0 5.1 0 0 Z " fill="#EEEEEE" transform="translate(30,255)"/>
<path d="M0 0 C4.95 0 9.9 0 15 0 C15 4.95 15 9.9 15 15 C10.05 15 5.1 15 0 15 C0 10.05 0 5.1 0 0 Z " fill="#FFFFFF" transform="translate(15,255)"/>
<path d="M0 0 C4.95 0 9.9 0 15 0 C15 4.95 15 9.9 15 15 C10.05 15 5.1 15 0 15 C0 10.05 0 5.1 0 0 Z " fill="#EEEEEE" transform="translate(0,255)"/>
<path d="M0 0 C4.95 0 9.9 0 15 0 C15 4.95 15 9.9 15 15 C10.05 15 5.1 15 0 15 C0 10.05 0 5.1 0 0 Z " fill="#EEEEEE" transform="translate(315,240)"/>
<path d="M0 0 C4.95 0 9.9 0 15 0 C15 4.95 15 9.9 15 15 C10.05 15 5.1 15 0 15 C0 10.05 0 5.1 0 0 Z " fill="#EEEEEE" transform="translate(285,240)"/>
<path d="M0 0 C4.95 0 9.9 0 15 0 C15 4.95 15 9.9 15 15 C10.05 15 5.1 15 0 15 C0 10.05 0 5.1 0 0 Z " fill="#FFFFFF" transform="translate(180,240)"/>
<path d="M0 0 C4.95 0 9.9 0 15 0 C15 4.95 15 9.9 15 15 C10.05 15 5.1 15 0 15 C0 10.05 0 5.1 0 0 Z " fill="#EEEEEE" transform="translate(165,240)"/>
<path d="M0 0 C4.95 0 9.9 0 15 0 C15 4.95 15 9.9 15 15 C10.05 15 5.1 15 0 15 C0 10.05 0 5.1 0 0 Z " fill="#EEEEEE" transform="translate(45,240)"/>
<path d="M0 0 C4.95 0 9.9 0 15 0 C15 4.95 15 9.9 15 15 C10.05 15 5.1 15 0 15 C0 10.05 0 5.1 0 0 Z " fill="#FFFFFF" transform="translate(30,240)"/>
<path d="M0 0 C4.95 0 9.9 0 15 0 C15 4.95 15 9.9 15 15 C10.05 15 5.1 15 0 15 C0 10.05 0 5.1 0 0 Z " fill="#EEEEEE" transform="translate(15,240)"/>
<path d="M0 0 C4.95 0 9.9 0 15 0 C15 4.95 15 9.9 15 15 C10.05 15 5.1 15 0 15 C0 10.05 0 5.1 0 0 Z " fill="#FFFFFF" transform="translate(0,240)"/>
<path d="M0 0 C4.95 0 9.9 0 15 0 C15 4.95 15 9.9 15 15 C10.05 15 5.1 15 0 15 C0 10.05 0 5.1 0 0 Z " fill="#EEEEEE" transform="translate(300,225)"/>
<path d="M0 0 C4.95 0 9.9 0 15 0 C15 4.95 15 9.9 15 15 C10.05 15 5.1 15 0 15 C0 10.05 0 5.1 0 0 Z " fill="#FFFFFF" transform="translate(165,225)"/>
<path d="M0 0 C4.95 0 9.9 0 15 0 C15 4.95 15 9.9 15 15 C10.05 15 5.1 15 0 15 C0 10.05 0 5.1 0 0 Z " fill="#EEEEEE" transform="translate(30,225)"/>
<path d="M0 0 C4.95 0 9.9 0 15 0 C15 4.95 15 9.9 15 15 C10.05 15 5.1 15 0 15 C0 10.05 0 5.1 0 0 Z " fill="#FFFFFF" transform="translate(15,225)"/>
<path d="M0 0 C4.95 0 9.9 0 15 0 C15 4.95 15 9.9 15 15 C10.05 15 5.1 15 0 15 C0 10.05 0 5.1 0 0 Z " fill="#EEEEEE" transform="translate(0,225)"/>
<path d="M0 0 C4.95 0 9.9 0 15 0 C15 4.95 15 9.9 15 15 C10.05 15 5.1 15 0 15 C0 10.05 0 5.1 0 0 Z " fill="#FFFFFF" transform="translate(330,210)"/>
<path d="M0 0 C4.95 0 9.9 0 15 0 C15 4.95 15 9.9 15 15 C10.05 15 5.1 15 0 15 C0 10.05 0 5.1 0 0 Z " fill="#EEEEEE" transform="translate(315,210)"/>
<path d="M0 0 C4.95 0 9.9 0 15 0 C15 4.95 15 9.9 15 15 C10.05 15 5.1 15 0 15 C0 10.05 0 5.1 0 0 Z " fill="#EEEEEE" transform="translate(15,210)"/>
<path d="M0 0 C4.95 0 9.9 0 15 0 C15 4.95 15 9.9 15 15 C10.05 15 5.1 15 0 15 C0 10.05 0 5.1 0 0 Z " fill="#FFFFFF" transform="translate(0,210)"/>
<path d="M0 0 C4.95 0 9.9 0 15 0 C15 4.95 15 9.9 15 15 C10.05 15 5.1 15 0 15 C0 10.05 0 5.1 0 0 Z " fill="#EEEEEE" transform="translate(0,195)"/>
<path d="M0 0 C4.95 0 9.9 0 15 0 C15 4.95 15 9.9 15 15 C10.05 15 5.1 15 0 15 C0 10.05 0 5.1 0 0 Z " fill="#FFFFFF" transform="translate(240,180)"/>
<path d="M0 0 C4.95 0 9.9 0 15 0 C15 4.95 15 9.9 15 15 C10.05 15 5.1 15 0 15 C0 10.05 0 5.1 0 0 Z " fill="#EEEEEE" transform="translate(240,165)"/>
<path d="M0 0 C4.95 0 9.9 0 15 0 C15 4.95 15 9.9 15 15 C10.05 15 5.1 15 0 15 C0 10.05 0 5.1 0 0 Z " fill="#FFFFFF" transform="translate(225,165)"/>
<path d="M0 0 C4.95 0 9.9 0 15 0 C15 4.95 15 9.9 15 15 C10.05 15 5.1 15 0 15 C0 10.05 0 5.1 0 0 Z " fill="#EEEEEE" transform="translate(0,135)"/>
<path d="M0 0 C4.95 0 9.9 0 15 0 C15 4.95 15 9.9 15 15 C10.05 15 5.1 15 0 15 C0 10.05 0 5.1 0 0 Z " fill="#FFFFFF" transform="translate(330,120)"/>
<path d="M0 0 C4.95 0 9.9 0 15 0 C15 4.95 15 9.9 15 15 C10.05 15 5.1 15 0 15 C0 10.05 0 5.1 0 0 Z " fill="#EEEEEE" transform="translate(315,120)"/>
<path d="M0 0 C4.95 0 9.9 0 15 0 C15 4.95 15 9.9 15 15 C10.05 15 5.1 15 0 15 C0 10.05 0 5.1 0 0 Z " fill="#EEEEEE" transform="translate(15,120)"/>
<path d="M0 0 C4.95 0 9.9 0 15 0 C15 4.95 15 9.9 15 15 C10.05 15 5.1 15 0 15 C0 10.05 0 5.1 0 0 Z " fill="#FFFFFF" transform="translate(0,120)"/>
<path d="M0 0 C4.95 0 9.9 0 15 0 C15 4.95 15 9.9 15 15 C10.05 15 5.1 15 0 15 C0 10.05 0 5.1 0 0 Z " fill="#FFFFFF" transform="translate(315,105)"/>
<path d="M0 0 C4.95 0 9.9 0 15 0 C15 4.95 15 9.9 15 15 C10.05 15 5.1 15 0 15 C0 10.05 0 5.1 0 0 Z " fill="#EEEEEE" transform="translate(300,105)"/>
<path d="M0 0 C4.95 0 9.9 0 15 0 C15 4.95 15 9.9 15 15 C10.05 15 5.1 15 0 15 C0 10.05 0 5.1 0 0 Z " fill="#EEEEEE" transform="translate(180,105)"/>
<path d="M0 0 C4.95 0 9.9 0 15 0 C15 4.95 15 9.9 15 15 C10.05 15 5.1 15 0 15 C0 10.05 0 5.1 0 0 Z " fill="#FFFFFF" transform="translate(165,105)"/>
<path d="M0 0 C4.95 0 9.9 0 15 0 C15 4.95 15 9.9 15 15 C10.05 15 5.1 15 0 15 C0 10.05 0 5.1 0 0 Z " fill="#EEEEEE" transform="translate(30,105)"/>
<path d="M0 0 C4.95 0 9.9 0 15 0 C15 4.95 15 9.9 15 15 C10.05 15 5.1 15 0 15 C0 10.05 0 5.1 0 0 Z " fill="#FFFFFF" transform="translate(15,105)"/>
<path d="M0 0 C4.95 0 9.9 0 15 0 C15 4.95 15 9.9 15 15 C10.05 15 5.1 15 0 15 C0 10.05 0 5.1 0 0 Z " fill="#EEEEEE" transform="translate(0,105)"/>
<path d="M0 0 C4.95 0 9.9 0 15 0 C15 4.95 15 9.9 15 15 C10.05 15 5.1 15 0 15 C0 10.05 0 5.1 0 0 Z " fill="#FFFFFF" transform="translate(330,90)"/>
<path d="M0 0 C4.95 0 9.9 0 15 0 C15 4.95 15 9.9 15 15 C10.05 15 5.1 15 0 15 C0 10.05 0 5.1 0 0 Z " fill="#EEEEEE" transform="translate(315,90)"/>
<path d="M0 0 C4.95 0 9.9 0 15 0 C15 4.95 15 9.9 15 15 C10.05 15 5.1 15 0 15 C0 10.05 0 5.1 0 0 Z " fill="#FFFFFF" transform="translate(300,90)"/>
<path d="M0 0 C4.95 0 9.9 0 15 0 C15 4.95 15 9.9 15 15 C10.05 15 5.1 15 0 15 C0 10.05 0 5.1 0 0 Z " fill="#EEEEEE" transform="translate(285,90)"/>
<path d="M0 0 C4.95 0 9.9 0 15 0 C15 4.95 15 9.9 15 15 C10.05 15 5.1 15 0 15 C0 10.05 0 5.1 0 0 Z " fill="#EEEEEE" transform="translate(165,90)"/>
<path d="M0 0 C4.95 0 9.9 0 15 0 C15 4.95 15 9.9 15 15 C10.05 15 5.1 15 0 15 C0 10.05 0 5.1 0 0 Z " fill="#EEEEEE" transform="translate(45,90)"/>
<path d="M0 0 C4.95 0 9.9 0 15 0 C15 4.95 15 9.9 15 15 C10.05 15 5.1 15 0 15 C0 10.05 0 5.1 0 0 Z " fill="#FFFFFF" transform="translate(30,90)"/>
<path d="M0 0 C4.95 0 9.9 0 15 0 C15 4.95 15 9.9 15 15 C10.05 15 5.1 15 0 15 C0 10.05 0 5.1 0 0 Z " fill="#EEEEEE" transform="translate(15,90)"/>
<path d="M0 0 C4.95 0 9.9 0 15 0 C15 4.95 15 9.9 15 15 C10.05 15 5.1 15 0 15 C0 10.05 0 5.1 0 0 Z " fill="#FFFFFF" transform="translate(0,90)"/>
<path d="M0 0 C4.95 0 9.9 0 15 0 C15 4.95 15 9.9 15 15 C10.05 15 5.1 15 0 15 C0 10.05 0 5.1 0 0 Z " fill="#FFFFFF" transform="translate(315,75)"/>
<path d="M0 0 C4.95 0 9.9 0 15 0 C15 4.95 15 9.9 15 15 C10.05 15 5.1 15 0 15 C0 10.05 0 5.1 0 0 Z " fill="#EEEEEE" transform="translate(300,75)"/>
<path d="M0 0 C4.95 0 9.9 0 15 0 C15 4.95 15 9.9 15 15 C10.05 15 5.1 15 0 15 C0 10.05 0 5.1 0 0 Z " fill="#FFFFFF" transform="translate(285,75)"/>
<path d="M0 0 C4.95 0 9.9 0 15 0 C15 4.95 15 9.9 15 15 C10.05 15 5.1 15 0 15 C0 10.05 0 5.1 0 0 Z " fill="#EEEEEE" transform="translate(270,75)"/>
<path d="M0 0 C4.95 0 9.9 0 15 0 C15 4.95 15 9.9 15 15 C10.05 15 5.1 15 0 15 C0 10.05 0 5.1 0 0 Z " fill="#EEEEEE" transform="translate(60,75)"/>
<path d="M0 0 C4.95 0 9.9 0 15 0 C15 4.95 15 9.9 15 15 C10.05 15 5.1 15 0 15 C0 10.05 0 5.1 0 0 Z " fill="#FFFFFF" transform="translate(45,75)"/>
<path d="M0 0 C4.95 0 9.9 0 15 0 C15 4.95 15 9.9 15 15 C10.05 15 5.1 15 0 15 C0 10.05 0 5.1 0 0 Z " fill="#EEEEEE" transform="translate(30,75)"/>
<path d="M0 0 C4.95 0 9.9 0 15 0 C15 4.95 15 9.9 15 15 C10.05 15 5.1 15 0 15 C0 10.05 0 5.1 0 0 Z " fill="#FFFFFF" transform="translate(15,75)"/>
<path d="M0 0 C4.95 0 9.9 0 15 0 C15 4.95 15 9.9 15 15 C10.05 15 5.1 15 0 15 C0 10.05 0 5.1 0 0 Z " fill="#EEEEEE" transform="translate(0,75)"/>
<path d="M0 0 C4.95 0 9.9 0 15 0 C15 4.95 15 9.9 15 15 C10.05 15 5.1 15 0 15 C0 10.05 0 5.1 0 0 Z " fill="#FFFFFF" transform="translate(330,60)"/>
<path d="M0 0 C4.95 0 9.9 0 15 0 C15 4.95 15 9.9 15 15 C10.05 15 5.1 15 0 15 C0 10.05 0 5.1 0 0 Z " fill="#EEEEEE" transform="translate(315,60)"/>
<path d="M0 0 C4.95 0 9.9 0 15 0 C15 4.95 15 9.9 15 15 C10.05 15 5.1 15 0 15 C0 10.05 0 5.1 0 0 Z " fill="#FFFFFF" transform="translate(300,60)"/>
<path d="M0 0 C4.95 0 9.9 0 15 0 C15 4.95 15 9.9 15 15 C10.05 15 5.1 15 0 15 C0 10.05 0 5.1 0 0 Z " fill="#EEEEEE" transform="translate(285,60)"/>
<path d="M0 0 C4.95 0 9.9 0 15 0 C15 4.95 15 9.9 15 15 C10.05 15 5.1 15 0 15 C0 10.05 0 5.1 0 0 Z " fill="#FFFFFF" transform="translate(270,60)"/>
<path d="M0 0 C4.95 0 9.9 0 15 0 C15 4.95 15 9.9 15 15 C10.05 15 5.1 15 0 15 C0 10.05 0 5.1 0 0 Z " fill="#EEEEEE" transform="translate(255,60)"/>
<path d="M0 0 C4.95 0 9.9 0 15 0 C15 4.95 15 9.9 15 15 C10.05 15 5.1 15 0 15 C0 10.05 0 5.1 0 0 Z " fill="#EEEEEE" transform="translate(75,60)"/>
<path d="M0 0 C4.95 0 9.9 0 15 0 C15 4.95 15 9.9 15 15 C10.05 15 5.1 15 0 15 C0 10.05 0 5.1 0 0 Z " fill="#FFFFFF" transform="translate(60,60)"/>
<path d="M0 0 C4.95 0 9.9 0 15 0 C15 4.95 15 9.9 15 15 C10.05 15 5.1 15 0 15 C0 10.05 0 5.1 0 0 Z " fill="#EEEEEE" transform="translate(45,60)"/>
<path d="M0 0 C4.95 0 9.9 0 15 0 C15 4.95 15 9.9 15 15 C10.05 15 5.1 15 0 15 C0 10.05 0 5.1 0 0 Z " fill="#FFFFFF" transform="translate(30,60)"/>
<path d="M0 0 C4.95 0 9.9 0 15 0 C15 4.95 15 9.9 15 15 C10.05 15 5.1 15 0 15 C0 10.05 0 5.1 0 0 Z " fill="#EEEEEE" transform="translate(15,60)"/>
<path d="M0 0 C4.95 0 9.9 0 15 0 C15 4.95 15 9.9 15 15 C10.05 15 5.1 15 0 15 C0 10.05 0 5.1 0 0 Z " fill="#FFFFFF" transform="translate(0,60)"/>
<path d="M0 0 C4.95 0 9.9 0 15 0 C15 4.95 15 9.9 15 15 C10.05 15 5.1 15 0 15 C0 10.05 0 5.1 0 0 Z " fill="#EEEEEE" transform="translate(330,45)"/>
<path d="M0 0 C4.95 0 9.9 0 15 0 C15 4.95 15 9.9 15 15 C10.05 15 5.1 15 0 15 C0 10.05 0 5.1 0 0 Z " fill="#FFFFFF" transform="translate(315,45)"/>
<path d="M0 0 C4.95 0 9.9 0 15 0 C15 4.95 15 9.9 15 15 C10.05 15 5.1 15 0 15 C0 10.05 0 5.1 0 0 Z " fill="#EEEEEE" transform="translate(300,45)"/>
<path d="M0 0 C4.95 0 9.9 0 15 0 C15 4.95 15 9.9 15 15 C10.05 15 5.1 15 0 15 C0 10.05 0 5.1 0 0 Z " fill="#FFFFFF" transform="translate(285,45)"/>
<path d="M0 0 C4.95 0 9.9 0 15 0 C15 4.95 15 9.9 15 15 C10.05 15 5.1 15 0 15 C0 10.05 0 5.1 0 0 Z " fill="#EEEEEE" transform="translate(270,45)"/>
<path d="M0 0 C4.95 0 9.9 0 15 0 C15 4.95 15 9.9 15 15 C10.05 15 5.1 15 0 15 C0 10.05 0 5.1 0 0 Z " fill="#FFFFFF" transform="translate(255,45)"/>
<path d="M0 0 C4.95 0 9.9 0 15 0 C15 4.95 15 9.9 15 15 C10.05 15 5.1 15 0 15 C0 10.05 0 5.1 0 0 Z " fill="#EEEEEE" transform="translate(240,45)"/>
<path d="M0 0 C4.95 0 9.9 0 15 0 C15 4.95 15 9.9 15 15 C10.05 15 5.1 15 0 15 C0 10.05 0 5.1 0 0 Z " fill="#EEEEEE" transform="translate(90,45)"/>
<path d="M0 0 C4.95 0 9.9 0 15 0 C15 4.95 15 9.9 15 15 C10.05 15 5.1 15 0 15 C0 10.05 0 5.1 0 0 Z " fill="#FFFFFF" transform="translate(75,45)"/>
<path d="M0 0 C4.95 0 9.9 0 15 0 C15 4.95 15 9.9 15 15 C10.05 15 5.1 15 0 15 C0 10.05 0 5.1 0 0 Z " fill="#EEEEEE" transform="translate(60,45)"/>
<path d="M0 0 C4.95 0 9.9 0 15 0 C15 4.95 15 9.9 15 15 C10.05 15 5.1 15 0 15 C0 10.05 0 5.1 0 0 Z " fill="#FFFFFF" transform="translate(45,45)"/>
<path d="M0 0 C4.95 0 9.9 0 15 0 C15 4.95 15 9.9 15 15 C10.05 15 5.1 15 0 15 C0 10.05 0 5.1 0 0 Z " fill="#EEEEEE" transform="translate(30,45)"/>
<path d="M0 0 C4.95 0 9.9 0 15 0 C15 4.95 15 9.9 15 15 C10.05 15 5.1 15 0 15 C0 10.05 0 5.1 0 0 Z " fill="#FFFFFF" transform="translate(15,45)"/>
<path d="M0 0 C4.95 0 9.9 0 15 0 C15 4.95 15 9.9 15 15 C10.05 15 5.1 15 0 15 C0 10.05 0 5.1 0 0 Z " fill="#EEEEEE" transform="translate(0,45)"/>
<path d="M0 0 C4.95 0 9.9 0 15 0 C15 4.95 15 9.9 15 15 C10.05 15 5.1 15 0 15 C0 10.05 0 5.1 0 0 Z " fill="#FFFFFF" transform="translate(330,30)"/>
<path d="M0 0 C4.95 0 9.9 0 15 0 C15 4.95 15 9.9 15 15 C10.05 15 5.1 15 0 15 C0 10.05 0 5.1 0 0 Z " fill="#EEEEEE" transform="translate(315,30)"/>
<path d="M0 0 C4.95 0 9.9 0 15 0 C15 4.95 15 9.9 15 15 C10.05 15 5.1 15 0 15 C0 10.05 0 5.1 0 0 Z " fill="#FFFFFF" transform="translate(300,30)"/>
<path d="M0 0 C4.95 0 9.9 0 15 0 C15 4.95 15 9.9 15 15 C10.05 15 5.1 15 0 15 C0 10.05 0 5.1 0 0 Z " fill="#EEEEEE" transform="translate(285,30)"/>
<path d="M0 0 C4.95 0 9.9 0 15 0 C15 4.95 15 9.9 15 15 C10.05 15 5.1 15 0 15 C0 10.05 0 5.1 0 0 Z " fill="#FFFFFF" transform="translate(270,30)"/>
<path d="M0 0 C4.95 0 9.9 0 15 0 C15 4.95 15 9.9 15 15 C10.05 15 5.1 15 0 15 C0 10.05 0 5.1 0 0 Z " fill="#EEEEEE" transform="translate(255,30)"/>
<path d="M0 0 C4.95 0 9.9 0 15 0 C15 4.95 15 9.9 15 15 C10.05 15 5.1 15 0 15 C0 10.05 0 5.1 0 0 Z " fill="#FFFFFF" transform="translate(240,30)"/>
<path d="M0 0 C4.95 0 9.9 0 15 0 C15 4.95 15 9.9 15 15 C10.05 15 5.1 15 0 15 C0 10.05 0 5.1 0 0 Z " fill="#EEEEEE" transform="translate(225,30)"/>
<path d="M0 0 C4.95 0 9.9 0 15 0 C15 4.95 15 9.9 15 15 C10.05 15 5.1 15 0 15 C0 10.05 0 5.1 0 0 Z " fill="#EEEEEE" transform="translate(105,30)"/>
<path d="M0 0 C4.95 0 9.9 0 15 0 C15 4.95 15 9.9 15 15 C10.05 15 5.1 15 0 15 C0 10.05 0 5.1 0 0 Z " fill="#FFFFFF" transform="translate(90,30)"/>
<path d="M0 0 C4.95 0 9.9 0 15 0 C15 4.95 15 9.9 15 15 C10.05 15 5.1 15 0 15 C0 10.05 0 5.1 0 0 Z " fill="#EEEEEE" transform="translate(75,30)"/>
<path d="M0 0 C4.95 0 9.9 0 15 0 C15 4.95 15 9.9 15 15 C10.05 15 5.1 15 0 15 C0 10.05 0 5.1 0 0 Z " fill="#FFFFFF" transform="translate(60,30)"/>
<path d="M0 0 C4.95 0 9.9 0 15 0 C15 4.95 15 9.9 15 15 C10.05 15 5.1 15 0 15 C0 10.05 0 5.1 0 0 Z " fill="#EEEEEE" transform="translate(45,30)"/>
<path d="M0 0 C4.95 0 9.9 0 15 0 C15 4.95 15 9.9 15 15 C10.05 15 5.1 15 0 15 C0 10.05 0 5.1 0 0 Z " fill="#FFFFFF" transform="translate(30,30)"/>
<path d="M0 0 C4.95 0 9.9 0 15 0 C15 4.95 15 9.9 15 15 C10.05 15 5.1 15 0 15 C0 10.05 0 5.1 0 0 Z " fill="#EEEEEE" transform="translate(15,30)"/>
<path d="M0 0 C4.95 0 9.9 0 15 0 C15 4.95 15 9.9 15 15 C10.05 15 5.1 15 0 15 C0 10.05 0 5.1 0 0 Z " fill="#FFFFFF" transform="translate(0,30)"/>
<path d="M0 0 C4.95 0 9.9 0 15 0 C15 4.95 15 9.9 15 15 C10.05 15 5.1 15 0 15 C0 10.05 0 5.1 0 0 Z " fill="#EEEEEE" transform="translate(330,15)"/>
<path d="M0 0 C4.95 0 9.9 0 15 0 C15 4.95 15 9.9 15 15 C10.05 15 5.1 15 0 15 C0 10.05 0 5.1 0 0 Z " fill="#FFFFFF" transform="translate(315,15)"/>
<path d="M0 0 C4.95 0 9.9 0 15 0 C15 4.95 15 9.9 15 15 C10.05 15 5.1 15 0 15 C0 10.05 0 5.1 0 0 Z " fill="#EEEEEE" transform="translate(300,15)"/>
<path d="M0 0 C4.95 0 9.9 0 15 0 C15 4.95 15 9.9 15 15 C10.05 15 5.1 15 0 15 C0 10.05 0 5.1 0 0 Z " fill="#FFFFFF" transform="translate(285,15)"/>
<path d="M0 0 C4.95 0 9.9 0 15 0 C15 4.95 15 9.9 15 15 C10.05 15 5.1 15 0 15 C0 10.05 0 5.1 0 0 Z " fill="#EEEEEE" transform="translate(270,15)"/>
<path d="M0 0 C4.95 0 9.9 0 15 0 C15 4.95 15 9.9 15 15 C10.05 15 5.1 15 0 15 C0 10.05 0 5.1 0 0 Z " fill="#FFFFFF" transform="translate(255,15)"/>
<path d="M0 0 C4.95 0 9.9 0 15 0 C15 4.95 15 9.9 15 15 C10.05 15 5.1 15 0 15 C0 10.05 0 5.1 0 0 Z " fill="#EEEEEE" transform="translate(240,15)"/>
<path d="M0 0 C4.95 0 9.9 0 15 0 C15 4.95 15 9.9 15 15 C10.05 15 5.1 15 0 15 C0 10.05 0 5.1 0 0 Z " fill="#FFFFFF" transform="translate(225,15)"/>
<path d="M0 0 C4.95 0 9.9 0 15 0 C15 4.95 15 9.9 15 15 C10.05 15 5.1 15 0 15 C0 10.05 0 5.1 0 0 Z " fill="#EEEEEE" transform="translate(210,15)"/>
<path d="M0 0 C4.95 0 9.9 0 15 0 C15 4.95 15 9.9 15 15 C10.05 15 5.1 15 0 15 C0 10.05 0 5.1 0 0 Z " fill="#EEEEEE" transform="translate(120,15)"/>
<path d="M0 0 C4.95 0 9.9 0 15 0 C15 4.95 15 9.9 15 15 C10.05 15 5.1 15 0 15 C0 10.05 0 5.1 0 0 Z " fill="#FFFFFF" transform="translate(105,15)"/>
<path d="M0 0 C4.95 0 9.9 0 15 0 C15 4.95 15 9.9 15 15 C10.05 15 5.1 15 0 15 C0 10.05 0 5.1 0 0 Z " fill="#EEEEEE" transform="translate(90,15)"/>
<path d="M0 0 C4.95 0 9.9 0 15 0 C15 4.95 15 9.9 15 15 C10.05 15 5.1 15 0 15 C0 10.05 0 5.1 0 0 Z " fill="#FFFFFF" transform="translate(75,15)"/>
<path d="M0 0 C4.95 0 9.9 0 15 0 C15 4.95 15 9.9 15 15 C10.05 15 5.1 15 0 15 C0 10.05 0 5.1 0 0 Z " fill="#EEEEEE" transform="translate(60,15)"/>
<path d="M0 0 C4.95 0 9.9 0 15 0 C15 4.95 15 9.9 15 15 C10.05 15 5.1 15 0 15 C0 10.05 0 5.1 0 0 Z " fill="#FFFFFF" transform="translate(45,15)"/>
<path d="M0 0 C4.95 0 9.9 0 15 0 C15 4.95 15 9.9 15 15 C10.05 15 5.1 15 0 15 C0 10.05 0 5.1 0 0 Z " fill="#EEEEEE" transform="translate(30,15)"/>
<path d="M0 0 C4.95 0 9.9 0 15 0 C15 4.95 15 9.9 15 15 C10.05 15 5.1 15 0 15 C0 10.05 0 5.1 0 0 Z " fill="#FFFFFF" transform="translate(15,15)"/>
<path d="M0 0 C4.95 0 9.9 0 15 0 C15 4.95 15 9.9 15 15 C10.05 15 5.1 15 0 15 C0 10.05 0 5.1 0 0 Z " fill="#EEEEEE" transform="translate(0,15)"/>
<path d="M0 0 C4.95 0 9.9 0 15 0 C15 4.95 15 9.9 15 15 C10.05 15 5.1 15 0 15 C0 10.05 0 5.1 0 0 Z " fill="#EEEEEE" transform="translate(315,0)"/>
<path d="M0 0 C4.95 0 9.9 0 15 0 C15 4.95 15 9.9 15 15 C10.05 15 5.1 15 0 15 C0 10.05 0 5.1 0 0 Z " fill="#FFFFFF" transform="translate(300,0)"/>
<path d="M0 0 C4.95 0 9.9 0 15 0 C15 4.95 15 9.9 15 15 C10.05 15 5.1 15 0 15 C0 10.05 0 5.1 0 0 Z " fill="#EEEEEE" transform="translate(285,0)"/>
<path d="M0 0 C4.95 0 9.9 0 15 0 C15 4.95 15 9.9 15 15 C10.05 15 5.1 15 0 15 C0 10.05 0 5.1 0 0 Z " fill="#EEEEEE" transform="translate(255,0)"/>
<path d="M0 0 C4.95 0 9.9 0 15 0 C15 4.95 15 9.9 15 15 C10.05 15 5.1 15 0 15 C0 10.05 0 5.1 0 0 Z " fill="#EEEEEE" transform="translate(225,0)"/>
<path d="M0 0 C4.95 0 9.9 0 15 0 C15 4.95 15 9.9 15 15 C10.05 15 5.1 15 0 15 C0 10.05 0 5.1 0 0 Z " fill="#EEEEEE" transform="translate(195,0)"/>
<path d="M0 0 C4.95 0 9.9 0 15 0 C15 4.95 15 9.9 15 15 C10.05 15 5.1 15 0 15 C0 10.05 0 5.1 0 0 Z " fill="#EEEEEE" transform="translate(135,0)"/>
<path d="M0 0 C4.95 0 9.9 0 15 0 C15 4.95 15 9.9 15 15 C10.05 15 5.1 15 0 15 C0 10.05 0 5.1 0 0 Z " fill="#FFFFFF" transform="translate(120,0)"/>
<path d="M0 0 C4.95 0 9.9 0 15 0 C15 4.95 15 9.9 15 15 C10.05 15 5.1 15 0 15 C0 10.05 0 5.1 0 0 Z " fill="#EEEEEE" transform="translate(105,0)"/>
<path d="M0 0 C4.95 0 9.9 0 15 0 C15 4.95 15 9.9 15 15 C10.05 15 5.1 15 0 15 C0 10.05 0 5.1 0 0 Z " fill="#FFFFFF" transform="translate(90,0)"/>
<path d="M0 0 C4.95 0 9.9 0 15 0 C15 4.95 15 9.9 15 15 C10.05 15 5.1 15 0 15 C0 10.05 0 5.1 0 0 Z " fill="#EEEEEE" transform="translate(75,0)"/>
<path d="M0 0 C4.95 0 9.9 0 15 0 C15 4.95 15 9.9 15 15 C10.05 15 5.1 15 0 15 C0 10.05 0 5.1 0 0 Z " fill="#FFFFFF" transform="translate(60,0)"/>
<path d="M0 0 C4.95 0 9.9 0 15 0 C15 4.95 15 9.9 15 15 C10.05 15 5.1 15 0 15 C0 10.05 0 5.1 0 0 Z " fill="#EEEEEE" transform="translate(45,0)"/>
<path d="M0 0 C4.95 0 9.9 0 15 0 C15 4.95 15 9.9 15 15 C10.05 15 5.1 15 0 15 C0 10.05 0 5.1 0 0 Z " fill="#FFFFFF" transform="translate(30,0)"/>
<path d="M0 0 C4.95 0 9.9 0 15 0 C15 4.95 15 9.9 15 15 C10.05 15 5.1 15 0 15 C0 10.05 0 5.1 0 0 Z " fill="#FFFFFF" transform="translate(0,0)"/>
<path d="M0 0 C4.29 0 8.58 0 13 0 C13 4.95 13 9.9 13 15 C8.71 15 4.42 15 0 15 C0 10.05 0 5.1 0 0 Z " fill="#EEEEEE" transform="translate(167,180)"/>
<path d="M0 0 C4.29 0 8.58 0 13 0 C13 4.95 13 9.9 13 15 C8.71 15 4.42 15 0 15 C0 10.05 0 5.1 0 0 Z " fill="#EEEEEE" transform="translate(167,150)"/>
<path d="M0 0 C1.32 0 2.64 0 4 0 C4 8.91 4 17.82 4 27 C-0.92324271 22.07675729 -2.95634261 18.08742292 -3.03125 11.07421875 C-2.48649404 3.72974106 -2.48649404 3.72974106 0 0 Z " fill="#EFEFEF" transform="translate(221,165)"/>
<path d="M0 0 C3.63 0 7.26 0 11 0 C10.67 1.32 10.34 2.64 10 4 C9.93311409 5.91561254 9.91468281 7.83335592 9.9375 9.75 C9.95103516 11.22726563 9.95103516 11.22726563 9.96484375 12.734375 C9.97644531 13.48203125 9.98804688 14.2296875 10 15 C6.7 15 3.4 15 0 15 C0 10.05 0 5.1 0 0 Z " fill="#EFEFEF" transform="translate(0,165)"/>
<path d="M0 0 C4.95 0 9.9 0 15 0 C15 3.3 15 6.6 15 10 C12.87506859 10.02693575 10.75004088 10.04636628 8.625 10.0625 C7.44164062 10.07410156 6.25828125 10.08570313 5.0390625 10.09765625 C2 10 2 10 0 9 C0 6.03 0 3.06 0 0 Z " fill="#EFEFEF" transform="translate(165,0)"/>
<path d="M0 0 C0.99 0 1.98 0 3 0 C3 5.94 3 11.88 3 18 C-2.94 18 -8.88 18 -15 18 C-15 17.01 -15 16.02 -15 15 C-10.05 15 -5.1 15 0 15 C0 10.05 0 5.1 0 0 Z " fill="#EFEFEF" transform="translate(345,330)"/>
<path d="M0 0 C1.98 0 3.96 0 6 0 C6.03738281 0.83144531 6.07476562 1.66289062 6.11328125 2.51953125 C6.21189453 4.14955078 6.21189453 4.14955078 6.3125 5.8125 C6.37050781 6.89144531 6.42851562 7.97039062 6.48828125 9.08203125 C6.77300627 12.34734434 6.77300627 12.34734434 10 15 C6.7 15 3.4 15 0 15 C0 10.05 0 5.1 0 0 Z " fill="#FEFEFE" transform="translate(180,210)"/>
<path d="M0 0 C4.95 0 9.9 0 15 0 C15 2.31 15 4.62 15 7 C10.05 7 5.1 7 0 7 C0 4.69 0 2.38 0 0 Z " fill="#EFEFEF" transform="translate(165,338)"/>
<path d="M0 0 C3.00847443 1.35281414 5.13372222 2.8706265 7.48339844 5.17700195 C8.14378113 5.82139725 8.80416382 6.46579254 9.48455811 7.12971497 C10.18574768 7.82554184 10.88693726 8.52136871 11.609375 9.23828125 C12.33618469 9.95606247 13.06299438 10.67384369 13.81182861 11.41337585 C15.34423337 12.93128878 16.87385508 14.45201576 18.40087891 15.9753418 C20.74316654 18.30570134 23.10345128 20.61675697 25.46484375 22.92773438 C26.95166717 24.40509721 28.43738274 25.88357601 29.921875 27.36328125 C30.6311615 28.05303543 31.340448 28.74278961 32.07122803 29.45344543 C32.71900208 30.10729721 33.36677612 30.76114899 34.03417969 31.43481445 C34.60835632 32.00392044 35.18253296 32.57302643 35.77410889 33.15937805 C37.3624227 35.54416184 37.22843579 37.19368855 37 40 C35 37 35 37 35 35 C34.34 35 33.68 35 33 35 C33 34.34 33 33.68 33 33 C32.34 33 31.68 33 31 33 C31 32.34 31 31.68 31 31 C30.34 31 29.68 31 29 31 C29 30.34 29 29.68 29 29 C28.34 29 27.68 29 27 29 C27 28.34 27 27.68 27 27 C26.34 27 25.68 27 25 27 C25 26.34 25 25.68 25 25 C24.34 25 23.68 25 23 25 C23 24.34 23 23.68 23 23 C22.34 23 21.68 23 21 23 C21 22.34 21 21.68 21 21 C20.34 21 19.68 21 19 21 C19 20.34 19 19.68 19 19 C18.34 19 17.68 19 17 19 C17 18.34 17 17.68 17 17 C16.34 17 15.68 17 15 17 C15 16.34 15 15.68 15 15 C14.34 15 13.68 15 13 15 C13 14.34 13 13.68 13 13 C12.34 13 11.68 13 11 13 C11 12.34 11 11.68 11 11 C10.34 11 9.68 11 9 11 C9 10.34 9 9.68 9 9 C8.34 9 7.68 9 7 9 C7 8.34 7 7.68 7 7 C6.34 7 5.68 7 5 7 C5 6.34 5 5.68 5 5 C4.34 5 3.68 5 3 5 C3 4.34 3 3.68 3 3 C2.01 2.67 1.02 2.34 0 2 C0 1.34 0 0.68 0 0 Z " fill="#F16247" transform="translate(114,61)"/>
<path d="M0 0 C3.63 0 7.26 0 11 0 C11 3.63 11 7.26 11 11 C10.01 11.495 10.01 11.495 9 12 C1.76785714 7.58035714 1.76785714 7.58035714 0.5625 3.1875 C0.376875 2.135625 0.19125 1.08375 0 0 Z " fill="#EFEFEF" transform="translate(154,255)"/>
<path d="M0 0 C1.98 0 3.96 0 6 0 C6 4.95 6 9.9 6 15 C4.02 15 2.04 15 0 15 C0 10.05 0 5.1 0 0 Z " fill="#EEEEEE" transform="translate(180,195)"/>
<path d="M0 0 C1.98 0 3.96 0 6 0 C6 4.95 6 9.9 6 15 C4.02 15 2.04 15 0 15 C0 10.05 0 5.1 0 0 Z " fill="#FFFFFF" transform="translate(180,180)"/>
<path d="M0 0 C1.98 0 3.96 0 6 0 C6 4.95 6 9.9 6 15 C4.02 15 2.04 15 0 15 C0 10.05 0 5.1 0 0 Z " fill="#EEEEEE" transform="translate(180,165)"/>
<path d="M0 0 C1.98 0 3.96 0 6 0 C6 4.95 6 9.9 6 15 C4.02 15 2.04 15 0 15 C0 10.05 0 5.1 0 0 Z " fill="#FFFFFF" transform="translate(180,150)"/>
<path d="M0 0 C1.98 0 3.96 0 6 0 C6 4.95 6 9.9 6 15 C4.02 15 2.04 15 0 15 C0 10.05 0 5.1 0 0 Z " fill="#EEEEEE" transform="translate(180,135)"/>
<path d="M0 0 C2.64 0 5.28 0 8 0 C8 4.95 8 9.9 8 15 C6.35 15 4.7 15 3 15 C2.92652344 13.98679688 2.92652344 13.98679688 2.8515625 12.953125 C2.77679688 12.06109375 2.70203125 11.1690625 2.625 10.25 C2.55539062 9.36828125 2.48578125 8.4865625 2.4140625 7.578125 C2.00049238 5.00306575 1.2539692 3.26326148 0 1 C0 0.67 0 0.34 0 0 Z " fill="#EEEEEE" transform="translate(337,165)"/>
<path d="M0 0 C0.66 1.32 1.32 2.64 2 4 C5.63 4 9.26 4 13 4 C13 7.3 13 10.6 13 14 C7.7681621 12.57313512 4.30551096 9.1519356 1 5 C0.0625 2.0625 0.0625 2.0625 0 0 Z " fill="#FEFEFE" transform="translate(152,116)"/>
<path d="M0 0 C4.53002518 1.48096977 7.0603804 2.44816035 9.4375 6.6875 C9.953125 7.780625 10.46875 8.87375 11 10 C7.37 10 3.74 10 0 10 C0 6.7 0 3.4 0 0 Z " fill="#EFEFEF" transform="translate(255,155)"/>
<path d="M0 0 C5.17019318 1.81914204 6.93262203 2.93262203 11 7 C6.71 7 2.42 7 -2 7 C-2 5.02 -2 3.04 -2 1 C-1.34 0.67 -0.68 0.34 0 0 Z " fill="#EFEFEF" transform="translate(182,83)"/>
<path d="M0 0 C0.33 0.99 0.66 1.98 1 3 C2.65 3 4.3 3 6 3 C6 6.96 6 10.92 6 15 C0.06896552 9.06896552 0.06896552 9.06896552 -0.125 3.25 C-0.08375 2.1775 -0.0425 1.105 0 0 Z " fill="#FEFEFE" transform="translate(219,177)"/>
<path d="M0 0 C4.95 0 9.9 0 15 0 C15 0.99 15 1.98 15 3 C10.05 3 5.1 3 0 3 C0 2.01 0 1.02 0 0 Z " fill="#FFFFFF" transform="translate(315,345)"/>
<path d="M0 0 C4.95 0 9.9 0 15 0 C15 0.99 15 1.98 15 3 C10.05 3 5.1 3 0 3 C0 2.01 0 1.02 0 0 Z " fill="#EEEEEE" transform="translate(300,345)"/>
<path d="M0 0 C4.95 0 9.9 0 15 0 C15 0.99 15 1.98 15 3 C10.05 3 5.1 3 0 3 C0 2.01 0 1.02 0 0 Z " fill="#FFFFFF" transform="translate(285,345)"/>
<path d="M0 0 C4.95 0 9.9 0 15 0 C15 0.99 15 1.98 15 3 C10.05 3 5.1 3 0 3 C0 2.01 0 1.02 0 0 Z " fill="#EEEEEE" transform="translate(270,345)"/>
<path d="M0 0 C4.95 0 9.9 0 15 0 C15 0.99 15 1.98 15 3 C10.05 3 5.1 3 0 3 C0 2.01 0 1.02 0 0 Z " fill="#FFFFFF" transform="translate(255,345)"/>
<path d="M0 0 C4.95 0 9.9 0 15 0 C15 0.99 15 1.98 15 3 C10.05 3 5.1 3 0 3 C0 2.01 0 1.02 0 0 Z " fill="#EEEEEE" transform="translate(240,345)"/>
<path d="M0 0 C4.95 0 9.9 0 15 0 C15 0.99 15 1.98 15 3 C10.05 3 5.1 3 0 3 C0 2.01 0 1.02 0 0 Z " fill="#FFFFFF" transform="translate(225,345)"/>
<path d="M0 0 C4.95 0 9.9 0 15 0 C15 0.99 15 1.98 15 3 C10.05 3 5.1 3 0 3 C0 2.01 0 1.02 0 0 Z " fill="#EEEEEE" transform="translate(210,345)"/>
<path d="M0 0 C4.95 0 9.9 0 15 0 C15 0.99 15 1.98 15 3 C10.05 3 5.1 3 0 3 C0 2.01 0 1.02 0 0 Z " fill="#FFFFFF" transform="translate(195,345)"/>
<path d="M0 0 C4.95 0 9.9 0 15 0 C15 0.99 15 1.98 15 3 C10.05 3 5.1 3 0 3 C0 2.01 0 1.02 0 0 Z " fill="#EEEEEE" transform="translate(180,345)"/>
<path d="M0 0 C4.95 0 9.9 0 15 0 C15 0.99 15 1.98 15 3 C10.05 3 5.1 3 0 3 C0 2.01 0 1.02 0 0 Z " fill="#FFFFFF" transform="translate(165,345)"/>
<path d="M0 0 C4.95 0 9.9 0 15 0 C15 0.99 15 1.98 15 3 C10.05 3 5.1 3 0 3 C0 2.01 0 1.02 0 0 Z " fill="#EEEEEE" transform="translate(150,345)"/>
<path d="M0 0 C4.95 0 9.9 0 15 0 C15 0.99 15 1.98 15 3 C10.05 3 5.1 3 0 3 C0 2.01 0 1.02 0 0 Z " fill="#FFFFFF" transform="translate(135,345)"/>
<path d="M0 0 C4.95 0 9.9 0 15 0 C15 0.99 15 1.98 15 3 C10.05 3 5.1 3 0 3 C0 2.01 0 1.02 0 0 Z " fill="#EEEEEE" transform="translate(120,345)"/>
<path d="M0 0 C4.95 0 9.9 0 15 0 C15 0.99 15 1.98 15 3 C10.05 3 5.1 3 0 3 C0 2.01 0 1.02 0 0 Z " fill="#FFFFFF" transform="translate(105,345)"/>
<path d="M0 0 C4.95 0 9.9 0 15 0 C15 0.99 15 1.98 15 3 C10.05 3 5.1 3 0 3 C0 2.01 0 1.02 0 0 Z " fill="#EEEEEE" transform="translate(90,345)"/>
<path d="M0 0 C4.95 0 9.9 0 15 0 C15 0.99 15 1.98 15 3 C10.05 3 5.1 3 0 3 C0 2.01 0 1.02 0 0 Z " fill="#FFFFFF" transform="translate(75,345)"/>
<path d="M0 0 C4.95 0 9.9 0 15 0 C15 0.99 15 1.98 15 3 C10.05 3 5.1 3 0 3 C0 2.01 0 1.02 0 0 Z " fill="#EEEEEE" transform="translate(60,345)"/>
<path d="M0 0 C4.95 0 9.9 0 15 0 C15 0.99 15 1.98 15 3 C10.05 3 5.1 3 0 3 C0 2.01 0 1.02 0 0 Z " fill="#EEEEEE" transform="translate(30,345)"/>
<path d="M0 0 C4.95 0 9.9 0 15 0 C15 0.99 15 1.98 15 3 C10.05 3 5.1 3 0 3 C0 2.01 0 1.02 0 0 Z " fill="#EEEEEE" transform="translate(0,345)"/>
<path d="M0 0 C0.99 0 1.98 0 3 0 C3 4.95 3 9.9 3 15 C2.01 15 1.02 15 0 15 C0 10.05 0 5.1 0 0 Z " fill="#FFFFFF" transform="translate(345,315)"/>
<path d="M0 0 C0.99 0 1.98 0 3 0 C3 4.95 3 9.9 3 15 C2.01 15 1.02 15 0 15 C0 10.05 0 5.1 0 0 Z " fill="#EEEEEE" transform="translate(345,300)"/>
<path d="M0 0 C0.99 0 1.98 0 3 0 C3 4.95 3 9.9 3 15 C2.01 15 1.02 15 0 15 C0 10.05 0 5.1 0 0 Z " fill="#FFFFFF" transform="translate(345,285)"/>
<path d="M0 0 C0.99 0 1.98 0 3 0 C3 4.95 3 9.9 3 15 C2.01 15 1.02 15 0 15 C0 10.05 0 5.1 0 0 Z " fill="#EEEEEE" transform="translate(345,270)"/>
<path d="M0 0 C0.99 0 1.98 0 3 0 C3 4.95 3 9.9 3 15 C2.01 15 1.02 15 0 15 C0 10.05 0 5.1 0 0 Z " fill="#FFFFFF" transform="translate(345,255)"/>
<path d="M0 0 C0.99 0 1.98 0 3 0 C3 4.95 3 9.9 3 15 C2.01 15 1.02 15 0 15 C0 10.05 0 5.1 0 0 Z " fill="#EEEEEE" transform="translate(345,240)"/>
<path d="M0 0 C0.99 0 1.98 0 3 0 C3 4.95 3 9.9 3 15 C2.01 15 1.02 15 0 15 C0 10.05 0 5.1 0 0 Z " fill="#FFFFFF" transform="translate(345,225)"/>
<path d="M0 0 C0.99 0 1.98 0 3 0 C3 4.95 3 9.9 3 15 C2.01 15 1.02 15 0 15 C0 10.05 0 5.1 0 0 Z " fill="#EEEEEE" transform="translate(345,210)"/>
<path d="M0 0 C0.99 0 1.98 0 3 0 C3 4.95 3 9.9 3 15 C2.01 15 1.02 15 0 15 C0 10.05 0 5.1 0 0 Z " fill="#FFFFFF" transform="translate(345,195)"/>
<path d="M0 0 C0.99 0 1.98 0 3 0 C3 4.95 3 9.9 3 15 C2.01 15 1.02 15 0 15 C0 10.05 0 5.1 0 0 Z " fill="#EEEEEE" transform="translate(345,180)"/>
<path d="M0 0 C0.99 0 1.98 0 3 0 C3 4.95 3 9.9 3 15 C2.01 15 1.02 15 0 15 C0 10.05 0 5.1 0 0 Z " fill="#FFFFFF" transform="translate(345,165)"/>
<path d="M0 0 C0.99 0 1.98 0 3 0 C3 4.95 3 9.9 3 15 C2.01 15 1.02 15 0 15 C0 10.05 0 5.1 0 0 Z " fill="#EEEEEE" transform="translate(345,150)"/>
<path d="M0 0 C0.99 0 1.98 0 3 0 C3 4.95 3 9.9 3 15 C2.01 15 1.02 15 0 15 C0 10.05 0 5.1 0 0 Z " fill="#FFFFFF" transform="translate(345,135)"/>
<path d="M0 0 C0.99 0 1.98 0 3 0 C3 4.95 3 9.9 3 15 C2.01 15 1.02 15 0 15 C0 10.05 0 5.1 0 0 Z " fill="#EEEEEE" transform="translate(345,120)"/>
<path d="M0 0 C0.99 0 1.98 0 3 0 C3 4.95 3 9.9 3 15 C2.01 15 1.02 15 0 15 C0 10.05 0 5.1 0 0 Z " fill="#FFFFFF" transform="translate(345,105)"/>
<path d="M0 0 C0.99 0 1.98 0 3 0 C3 4.95 3 9.9 3 15 C2.01 15 1.02 15 0 15 C0 10.05 0 5.1 0 0 Z " fill="#EEEEEE" transform="translate(345,90)"/>
<path d="M0 0 C0.99 0 1.98 0 3 0 C3 4.95 3 9.9 3 15 C2.01 15 1.02 15 0 15 C0 10.05 0 5.1 0 0 Z " fill="#FFFFFF" transform="translate(345,75)"/>
<path d="M0 0 C0.99 0 1.98 0 3 0 C3 4.95 3 9.9 3 15 C2.01 15 1.02 15 0 15 C0 10.05 0 5.1 0 0 Z " fill="#EEEEEE" transform="translate(345,60)"/>
<path d="M0 0 C0.99 0 1.98 0 3 0 C3 4.95 3 9.9 3 15 C2.01 15 1.02 15 0 15 C0 10.05 0 5.1 0 0 Z " fill="#EEEEEE" transform="translate(345,30)"/>
<path d="M0 0 C0.99 0 1.98 0 3 0 C3 4.95 3 9.9 3 15 C2.01 15 1.02 15 0 15 C0 10.05 0 5.1 0 0 Z " fill="#EEEEEE" transform="translate(345,0)"/>
<path d="M0 0 C3.96 0 7.92 0 12 0 C12 1.65 12 3.3 12 5 C7.25081338 4.53439347 3.89217595 3.83067342 0 1 C0 0.67 0 0.34 0 0 Z " fill="#FEFEFE" transform="translate(228,195)"/>
<path d="M0 0 C3.36591866 1.44253657 5.51047079 3.33264727 8 6 C7.67 6.66 7.34 7.32 7 8 C4.69 7.67 2.38 7.34 0 7 C0 4.69 0 2.38 0 0 Z " fill="#FCFCFC" transform="translate(150,68)"/>
<path d="M0 0 C3.36591866 1.44253657 5.51047079 3.33264727 8 6 C7.67 6.66 7.34 7.32 7 8 C4.69 7.67 2.38 7.34 0 7 C0 4.69 0 2.38 0 0 Z " fill="#FCFCFC" transform="translate(135,53)"/>
<path d="M0 0 C0.66 0 1.32 0 2 0 C2.53012738 1.28788008 3.0488329 2.58046678 3.5625 3.875 C3.99755859 4.95394531 3.99755859 4.95394531 4.44140625 6.0546875 C5 8 5 8 4 10 C2.68 10 1.36 10 0 10 C0 6.7 0 3.4 0 0 Z " fill="#F1F1F1" transform="translate(195,95)"/>
<path d="M0 0 C2.31 0 4.62 0 7 0 C5.71480435 2.86697492 4.42870746 4.97607712 2 7 C1.34 7 0.68 7 0 7 C0 4.69 0 2.38 0 0 Z " fill="#F1F1F1" transform="translate(15,150)"/>
<path d="M0 0 C2.86697492 1.28519565 4.97607712 2.57129254 7 5 C7 5.66 7 6.32 7 7 C4.69 7 2.38 7 0 7 C0 4.69 0 2.38 0 0 Z " fill="#FBFBFB" transform="translate(225,143)"/>
<path d="M0 0 C2.31 0 4.62 0 7 0 C5.71480435 2.86697492 4.42870746 4.97607712 2 7 C1.34 7 0.68 7 0 7 C0 4.69 0 2.38 0 0 Z " fill="#F1F1F1" transform="translate(30,135)"/>
<path d="M0 0 C2.86697492 1.28519565 4.97607712 2.57129254 7 5 C7 5.66 7 6.32 7 7 C4.69 7 2.38 7 0 7 C0 4.69 0 2.38 0 0 Z " fill="#FBFBFB" transform="translate(210,128)"/>
<path d="M0 0 C2.31 0 4.62 0 7 0 C5.71480435 2.86697492 4.42870746 4.97607712 2 7 C1.34 7 0.68 7 0 7 C0 4.69 0 2.38 0 0 Z " fill="#F1F1F1" transform="translate(45,120)"/>
<path d="M0 0 C2.31 0 4.62 0 7 0 C5.71480435 2.86697492 4.42870746 4.97607712 2 7 C1.34 7 0.68 7 0 7 C0 4.69 0 2.38 0 0 Z " fill="#F1F1F1" transform="translate(60,105)"/>
<path d="M0 0 C2.31 0 4.62 0 7 0 C5.71480435 2.86697492 4.42870746 4.97607712 2 7 C1.34 7 0.68 7 0 7 C0 4.69 0 2.38 0 0 Z " fill="#F1F1F1" transform="translate(75,90)"/>
<path d="M0 0 C2.31 0 4.62 0 7 0 C5.71480435 2.86697492 4.42870746 4.97607712 2 7 C1.34 7 0.68 7 0 7 C0 4.69 0 2.38 0 0 Z " fill="#F1F1F1" transform="translate(90,75)"/>
<path d="M0 0 C2.31 0 4.62 0 7 0 C5.71480435 2.86697492 4.42870746 4.97607712 2 7 C1.34 7 0.68 7 0 7 C0 4.69 0 2.38 0 0 Z " fill="#F1F1F1" transform="translate(105,60)"/>
<path d="M0 0 C2.31 0 4.62 0 7 0 C5.71480435 2.86697492 4.42870746 4.97607712 2 7 C1.34 7 0.68 7 0 7 C0 4.69 0 2.38 0 0 Z " fill="#F1F1F1" transform="translate(135,30)"/>
<path d="M0 0 C2.31 0 4.62 0 7 0 C5.71480435 2.86697492 4.42870746 4.97607712 2 7 C1.34 7 0.68 7 0 7 C0 4.69 0 2.38 0 0 Z " fill="#F1F1F1" transform="translate(150,15)"/>
<path d="M0 0 C3.29660924 3.29660924 4.91268264 5.07901809 5.125 9.75 C5.08375 10.4925 5.0425 11.235 5 12 C3.68 11.67 2.36 11.34 1 11 C0.67 7.37 0.34 3.74 0 0 Z " fill="#FDFDFD" transform="translate(194,229)"/>
<path d="M0 0 C0 0.99 0 1.98 0 3 C-1.36125 3.4021875 -1.36125 3.4021875 -2.75 3.8125 C-5.71471963 4.89576294 -7.6169754 5.98359457 -10 8 C-8.18341255 3.37595922 -5.13109685 0 0 0 Z " fill="#FAFAFA" transform="translate(165,222)"/>
<path d="M0 0 C1.65 1.65 3.3 3.3 5 5 C3.35 5.33 1.7 5.66 0 6 C0 4.02 0 2.04 0 0 Z " fill="#EFEFEF" transform="translate(150,324)"/>
<path d="M0 0 C1.65 1.65 3.3 3.3 5 5 C3.35 5.33 1.7 5.66 0 6 C0 4.02 0 2.04 0 0 Z " fill="#EFEFEF" transform="translate(120,294)"/>
<path d="M0 0 C1.65 1.65 3.3 3.3 5 5 C3.35 5.33 1.7 5.66 0 6 C0 4.02 0 2.04 0 0 Z " fill="#EFEFEF" transform="translate(90,264)"/>
<path d="M0 0 C1.65 1.65 3.3 3.3 5 5 C3.35 5.33 1.7 5.66 0 6 C0 4.02 0 2.04 0 0 Z " fill="#EFEFEF" transform="translate(60,234)"/>
<path d="M0 0 C1.875 0.3125 1.875 0.3125 4 1 C4.66 1.99 5.32 2.98 6 4 C4.02 4 2.04 4 0 4 C0 2.68 0 1.36 0 0 Z " fill="#EFEFEF" transform="translate(135,311)"/>
<path d="M0 0 C1.875 0.3125 1.875 0.3125 4 1 C4.66 1.99 5.32 2.98 6 4 C4.02 4 2.04 4 0 4 C0 2.68 0 1.36 0 0 Z " fill="#EFEFEF" transform="translate(105,281)"/>
<path d="M0 0 C1.875 0.3125 1.875 0.3125 4 1 C4.66 1.99 5.32 2.98 6 4 C4.02 4 2.04 4 0 4 C0 2.68 0 1.36 0 0 Z " fill="#EFEFEF" transform="translate(75,251)"/>
</svg>
