<?xml version="1.0" encoding="UTF-8"?>
<svg version="1.1" xmlns="http://www.w3.org/2000/svg" width="512" height="512">
<path d="M0 0 C4.01154716 3.35026541 5.82401753 6.24515907 7.41015625 11.18359375 C7.61443237 11.80501251 7.8187085 12.42643127 8.0291748 13.06668091 C8.7215818 15.18583776 9.39172267 17.31140585 10.0625 19.4375 C10.56954932 21.00490771 11.07798666 22.57186692 11.58764648 24.13842773 C12.74710376 27.71282922 13.89625917 31.29035694 15.0390625 34.87011719 C17.19499502 41.61995041 19.37880328 48.36067031 21.5625 55.1015625 C26.72900037 71.06107484 31.86346595 87.03080234 37 103 C43.27 122.47 49.54 141.94 56 162 C111.44 162 166.88 162 224 162 C235.98205232 125.30574237 235.98205232 125.30574237 247.8125 88.5625 C249.45934343 83.41762491 251.10663937 78.27290094 252.75613403 73.12887573 C254.6675617 67.16634437 256.57319255 61.20201524 258.47167969 55.23535156 C260.39691436 49.18586077 262.33456097 43.14047175 264.28449154 37.09889507 C265.33710305 33.83624271 266.38435892 30.5720985 267.41836548 27.30349731 C268.57068714 23.67023939 269.74203125 20.04364038 270.91796875 16.41796875 C271.25694183 15.33391754 271.59591492 14.24986633 271.94515991 13.13296509 C273.7854886 7.53142345 275.26891267 3.64307835 280 0 C282.0625 -0.6640625 282.0625 -0.6640625 284 -0.625 C284.639375 -0.63789062 285.27875 -0.65078125 285.9375 -0.6640625 C289.18417209 0.38126753 291.06319426 2.28663561 293 5 C294.7556542 8.92136981 296.01523204 12.97839083 297.30078125 17.07421875 C297.69378922 18.28411972 298.08679718 19.49402069 298.49171448 20.74058533 C299.56008129 24.03079328 300.60954784 27.32675286 301.65566254 30.6240921 C302.76395459 34.1057123 303.89007521 37.58155926 305.01416016 41.05810547 C307.4922148 48.73330028 309.94575408 56.41619909 312.39443207 64.10080719 C313.95806913 69.00471328 315.52881613 73.9063504 317.09765625 78.80859375 C318.99294318 84.7337113 320.88628337 90.65943412 322.77416992 96.58691406 C328.45520411 114.40426913 334.28110829 132.17307184 340.125 149.9375 C340.36122196 150.65562237 340.59744392 151.37374474 340.84082413 152.11362839 C342.70699604 157.78668914 344.57341256 163.45966946 346.44025612 169.13250923 C350.37282627 181.08291411 354.29079796 193.03802085 358.18719482 205.00027466 C358.75733231 206.75062178 359.32783007 208.5008516 359.89874268 210.25094604 C361.37868005 214.78835192 362.85159438 219.32790266 364.31311035 223.87127686 C364.78160379 225.32317358 365.25283069 226.77419042 365.72644043 228.22442627 C366.43455874 230.39374392 367.13413793 232.56565587 367.83203125 234.73828125 C368.23526611 235.98262939 368.63850098 237.22697754 369.05395508 238.5090332 C370.92178975 245.40146365 371.55948556 251.58983156 367.99609375 257.93359375 C364.91352971 262.57165021 360.97619403 265.43262254 356.4375 268.5625 C354.72705052 269.78141055 353.01744195 271.00150181 351.30859375 272.22265625 C350.43058105 272.84414551 349.55256836 273.46563477 348.64794922 274.10595703 C344.37530439 277.16212323 340.19079129 280.3330391 336 283.5 C324.83831765 291.89511151 313.59060088 300.17192662 302.32421875 308.42578125 C293.88120191 314.61925938 285.50126446 320.88380562 277.1875 327.25 C270.96532856 332.01408732 264.71089184 336.70043388 258.30419922 341.21289062 C252.35959555 345.41561948 246.55807882 349.805871 240.74291992 354.18505859 C234.93740728 358.55442164 229.10564766 362.88558672 223.25 367.1875 C217.47765904 371.42917517 211.72378454 375.69301509 206 380 C197.85023331 386.13044582 189.63977156 392.1771043 181.42333984 398.21777344 C178.23548318 400.56225799 175.04959683 402.90940362 171.86499023 405.25830078 C170.29732334 406.4128105 168.72784175 407.56486043 167.15649414 408.71435547 C162.97848505 411.77553975 158.84625816 414.88242988 154.7578125 418.0625 C153.89865234 418.72121094 153.03949219 419.37992187 152.15429688 420.05859375 C150.50092175 421.32767088 148.85839176 422.61103737 147.22851562 423.91015625 C146.48537109 424.47605469 145.74222656 425.04195313 144.9765625 425.625 C144.32768066 426.13289063 143.67879883 426.64078125 143.01025391 427.1640625 C141 428 141 428 138.53833008 427.35742188 C135.94532034 425.97075898 133.7283799 424.46411753 131.41015625 422.65625 C130.55091553 421.99230225 129.6916748 421.32835449 128.80639648 420.64428711 C127.90091064 419.93667236 126.9954248 419.22905762 126.0625 418.5 C124.16009531 417.03094342 122.25644952 415.56349263 120.3515625 414.09765625 C119.42891602 413.38754395 118.50626953 412.67743164 117.55566406 411.94580078 C114.39630063 409.54036263 111.18695615 407.21903304 107.9375 404.9375 C102.31558878 400.97959366 96.80518925 396.88522829 91.3125 392.75 C84.71095713 387.78007424 78.09339906 382.83444345 71.4375 377.9375 C70.65656982 377.36273926 69.87563965 376.78797852 69.07104492 376.19580078 C65.15835075 373.31795219 61.24234125 370.44467114 57.32421875 367.57421875 C47.9657822 360.70922331 38.69941012 353.73717019 29.48486328 346.68017578 C24.18846947 342.63485215 18.83897706 338.69593368 13.38549805 334.86621094 C7.98588438 331.04764718 2.74808333 327.02317484 -2.5 323 C-8.82562047 318.15183136 -15.17875473 313.37694244 -21.69458008 308.78808594 C-26.76410564 305.20367755 -31.72756122 301.48414155 -36.6875 297.75 C-43.28906298 292.7800591 -49.90783534 287.83613973 -56.5625 282.9375 C-57.33182861 282.36854004 -58.10115723 281.79958008 -58.89379883 281.21337891 C-62.97956671 278.19697144 -67.0889806 275.22148089 -71.23828125 272.29296875 C-72.09800537 271.67881104 -72.95772949 271.06465332 -73.84350586 270.43188477 C-75.47774756 269.26542485 -77.1200118 268.11008658 -78.77172852 266.96850586 C-83.79995361 263.35775721 -87.74939643 259.87659265 -90 254 C-91.11026729 245.13685707 -89.06415959 237.51528327 -86.1875 229.20703125 C-85.57359193 227.36156991 -84.95968403 225.51610852 -84.34578323 223.67064476 C-83.69335932 221.72105053 -83.03213238 219.77465915 -82.36804199 217.82901001 C-80.97511005 213.74767014 -79.60729102 209.65818136 -78.24316406 205.56713867 C-76.61629236 200.69327457 -74.98401095 195.82129971 -73.34352493 190.95200062 C-69.73701065 180.24658238 -66.21160448 169.51537092 -62.71435547 158.77377319 C-61.74492856 155.79692699 -60.77306479 152.82088498 -59.80078125 149.8449707 C-54.80592726 134.54395823 -49.8982341 119.21560662 -45.00494385 103.88186646 C-38.32970676 82.96906483 -31.55184786 62.09092628 -24.69224548 41.23788452 C-22.98817977 36.04766061 -21.30940629 30.85064958 -19.66687012 25.640625 C-18.76368013 22.77942235 -17.84794665 19.92233033 -16.93011475 17.0657959 C-16.33405351 15.19272987 -15.75675181 13.31372582 -15.18017578 11.43457031 C-14.82810059 10.34499023 -14.47602539 9.25541016 -14.11328125 8.1328125 C-13.67689331 6.73893311 -13.67689331 6.73893311 -13.23168945 5.31689453 C-10.41574016 0.01989576 -5.58765355 -0.79823622 0 0 Z " fill="#E24328" transform="translate(116,42)"/>
<path d="M0 0 C0.87516344 2.28167903 1.66559288 4.54166708 2.41430664 6.86474609 C2.64707809 7.57062363 2.87984955 8.27650116 3.11967468 9.00376892 C3.88900988 11.3417863 4.64964892 13.68253517 5.41015625 16.0234375 C5.94250018 17.64783454 6.47533871 19.27206956 7.00865173 20.89614868 C8.12603864 24.30295595 9.23950527 27.71100948 10.34985352 31.12011719 C11.77274423 35.48877679 13.20203607 39.85530516 14.63385868 44.22104454 C15.9988512 48.38366858 17.36098859 52.54722485 18.72265625 56.7109375 C18.98271013 57.50556774 19.24276402 58.30019798 19.51069832 59.11890793 C20.24704698 61.37092416 20.9814073 63.62357818 21.71508789 65.87646484 C22.04160843 66.87408592 22.04160843 66.87408592 22.37472534 67.89186096 C24.02250805 72.9632131 25.19512459 77.40908412 25.375 82.75 C25.42398438 83.73484375 25.47296875 84.7196875 25.5234375 85.734375 C24.50592947 92.08241014 21.06704538 96.4236988 16.05859375 100.31640625 C14.52815937 101.41243786 12.98717522 102.493846 11.4375 103.5625 C9.72705052 104.78141055 8.01744195 106.00150181 6.30859375 107.22265625 C5.43058105 107.84414551 4.55256836 108.46563477 3.64794922 109.10595703 C-0.62469561 112.16212323 -4.80920871 115.3330391 -9 118.5 C-20.16168235 126.89511151 -31.40939912 135.17192662 -42.67578125 143.42578125 C-51.11879809 149.61925938 -59.49873554 155.88380562 -67.8125 162.25 C-74.03467144 167.01408732 -80.28910816 171.70043388 -86.69580078 176.21289062 C-92.64040445 180.41561948 -98.44192118 184.805871 -104.25708008 189.18505859 C-110.06259272 193.55442164 -115.89435234 197.88558672 -121.75 202.1875 C-127.52234096 206.42917517 -133.27621546 210.69301509 -139 215 C-144.74762294 219.3234969 -150.52060804 223.61098343 -156.3125 227.875 C-157.10640137 228.45950928 -157.90030273 229.04401855 -158.71826172 229.64624023 C-162.75352453 232.6154539 -166.79162068 235.58076452 -170.83203125 238.54296875 C-172.4298759 239.71588922 -174.02753353 240.88906451 -175.625 242.0625 C-176.78950684 242.91714844 -176.78950684 242.91714844 -177.97753906 243.7890625 C-181.98554629 246.74109789 -185.96273767 249.72668222 -189.90234375 252.76953125 C-190.68593262 253.37466553 -191.46952148 253.9797998 -192.27685547 254.60327148 C-193.77033616 255.76095034 -195.26040784 256.92304411 -196.74658203 258.09008789 C-197.40899902 258.60434326 -198.07141602 259.11859863 -198.75390625 259.6484375 C-199.33470947 260.10395996 -199.9155127 260.55948242 -200.51391602 261.02880859 C-202 262 -202 262 -204 262 C-203.37306967 256.36607367 -201.97560307 251.27840937 -200.21875 245.8984375 C-199.93379669 245.01031372 -199.64884338 244.12218994 -199.35525513 243.20715332 C-198.40875364 240.26138335 -197.45434218 237.31823823 -196.5 234.375 C-195.8241557 232.2763819 -195.14887455 230.17758237 -194.47412109 228.07861328 C-193.04769912 223.64395607 -191.61824541 219.21029263 -190.18652344 214.77734375 C-188.05573193 208.17726621 -185.93622036 201.57361215 -183.8203125 194.96875 C-183.4760321 193.89416534 -183.13175171 192.81958069 -182.77703857 191.71243286 C-182.07839776 189.53178284 -181.37976904 187.35112894 -180.68115234 185.17047119 C-178.89591898 179.60007679 -177.10809527 174.03051411 -175.3203125 168.4609375 C-171.39868966 156.24301234 -167.47911984 144.02442952 -163.56021118 131.80563354 C-161.79150286 126.29097604 -160.02271826 120.776343 -158.25390625 115.26171875 C-157.72826332 113.62291496 -157.72826332 113.62291496 -157.19200134 111.95100403 C-155.05793493 105.2977634 -152.92350721 98.64463881 -150.78878784 91.99160767 C-149.34916619 87.504853 -147.90968701 83.01805263 -146.47021484 78.53125 C-145.81322019 76.48353901 -145.15616335 74.43584797 -144.49902344 72.38818359 C-136.65008618 47.93055933 -128.82701314 23.4646469 -121 -1 C-105.51898739 -1.17716162 -90.03788364 -1.34284228 -74.55660439 -1.49477577 C-67.36872064 -1.56558681 -60.18091312 -1.64018458 -52.99316406 -1.72363281 C-46.72987196 -1.79633876 -40.46655284 -1.86200521 -34.20309865 -1.91914403 C-30.88523453 -1.94965934 -27.56752295 -1.98479914 -24.24977493 -2.02626419 C-20.55016471 -2.07190489 -16.8506431 -2.10510199 -13.15087891 -2.13525391 C-12.04533157 -2.1517952 -10.93978424 -2.16833649 -9.80073547 -2.18537903 C-8.29468498 -2.19387627 -8.29468498 -2.19387627 -6.75820923 -2.20254517 C-5.88250589 -2.2117631 -5.00680256 -2.22098103 -4.10456276 -2.23047829 C-2 -2 -2 -2 0 0 Z " fill="#FB6D25" transform="translate(461,207)"/>
<path d="M0 0 C39.27 0.33 78.54 0.66 119 1 C123.50017555 12.25043888 123.50017555 12.25043888 125.21972656 17.58398438 C125.60885727 18.78519424 125.99798798 19.98640411 126.39891052 21.22401428 C126.81289419 22.51390089 127.22679662 23.80381357 127.640625 25.09375 C128.08390348 26.46672251 128.52747896 27.83959916 128.97132874 29.21238708 C130.15595649 32.87942253 131.33621626 36.5478497 132.51553726 40.2165947 C133.50427935 43.29054087 134.49562369 46.36364509 135.48700809 49.43673992 C143.06405821 72.9242356 150.59603784 96.42619444 158.1036377 119.93597412 C161.85105517 131.66876009 165.61263697 143.39699971 169.375 155.125 C169.72291595 156.20966553 170.07083191 157.29433105 170.42929077 158.41186523 C174.55782798 171.28250495 178.69075417 184.15172842 182.828125 197.01953125 C183.230242 198.270224 183.63235901 199.52091675 184.04666138 200.80950928 C186.33859455 207.93769379 188.63141225 215.06559303 190.92483521 222.19329834 C191.95455255 225.3963787 192.98180898 228.60024035 194.00878906 231.80419922 C195.35339642 235.99714887 196.71113503 240.18555992 198.07714844 244.37158203 C198.72595997 246.37400772 199.37472513 248.37644843 200.0234375 250.37890625 C200.32512848 251.29453842 200.62681946 252.21017059 200.93765259 253.15354919 C201.21007782 253.99821243 201.48250305 254.84287567 201.76318359 255.71313477 C202.00314056 256.44798599 202.24309753 257.18283722 202.49032593 257.93995667 C203 260 203 260 203 264 C200.13746643 262.65283182 197.65713196 261.12226944 195.12109375 259.234375 C194.00118042 258.40462158 194.00118042 258.40462158 192.85864258 257.55810547 C192.05966553 256.96143066 191.26068848 256.36475586 190.4375 255.75 C188.72143442 254.47645436 187.00528626 253.20301998 185.2890625 251.9296875 C183.97276855 250.95080566 183.97276855 250.95080566 182.62988281 249.95214844 C179.32414635 247.49831732 176.00729823 245.05982254 172.68969727 242.62207031 C165.44672364 237.29900168 158.23458377 231.9374143 151.05126953 226.53417969 C145.95104985 222.70237566 140.8246987 218.90705734 135.6875 215.125 C134.89069824 214.53831543 134.09389648 213.95163086 133.27294922 213.34716797 C129.28789972 210.41474278 125.29984916 207.48647219 121.30859375 204.5625 C111.95519298 197.70164781 102.6942387 190.73320964 93.48486328 183.68017578 C88.18846947 179.63485215 82.83897706 175.69593368 77.38549805 171.86621094 C71.98588438 168.04764718 66.74808333 164.02317484 61.5 160 C55.17437953 155.15183136 48.82124527 150.37694244 42.30541992 145.78808594 C37.23589436 142.20367755 32.27243878 138.48414155 27.3125 134.75 C20.71093702 129.7800591 14.09216466 124.83613973 7.4375 119.9375 C6.66817139 119.36854004 5.89884277 118.79958008 5.10620117 118.21337891 C1.02043329 115.19697144 -3.0889806 112.22148089 -7.23828125 109.29296875 C-8.09800537 108.67881104 -8.95772949 108.06465332 -9.84350586 107.43188477 C-11.47774756 106.26542485 -13.1200118 105.11008658 -14.77172852 103.96850586 C-19.80309587 100.35550076 -23.74211922 96.8762891 -26 91 C-27.21865388 81.765659 -24.81460483 73.76815571 -21.8359375 65.1171875 C-21.40034218 63.81034495 -20.96634566 62.50296854 -20.53384399 61.19509888 C-19.39781401 57.7739318 -18.24062473 54.36031056 -17.07849121 50.94793701 C-15.91837257 47.52948226 -14.77834437 44.10435273 -13.63671875 40.6796875 C-11.94102435 35.60029173 -10.23456788 30.52472149 -8.51708984 25.45263672 C-5.65428964 16.97641566 -2.82916858 8.48750573 0 0 Z " fill="#FB6D25" transform="translate(52,205)"/>
<path d="M0 0 C2.59979612 2.59979612 3.3126814 5.44666751 4.41430664 8.86474609 C4.64707809 9.57062363 4.87984955 10.27650116 5.11967468 11.00376892 C5.88900988 13.3417863 6.64964892 15.68253517 7.41015625 18.0234375 C7.94250018 19.64783454 8.47533871 21.27206956 9.00865173 22.89614868 C10.12603864 26.30295595 11.23950527 29.71100948 12.34985352 33.12011719 C13.77274423 37.48877679 15.20203607 41.85530516 16.63385868 46.22104454 C17.9988512 50.38366858 19.36098859 54.54722485 20.72265625 58.7109375 C20.98271013 59.50556774 21.24276402 60.30019798 21.51069832 61.11890793 C22.24704698 63.37092416 22.9814073 65.62357818 23.71508789 67.87646484 C24.04160843 68.87408592 24.04160843 68.87408592 24.37472534 69.89186096 C26.02250805 74.9632131 27.19512459 79.40908412 27.375 84.75 C27.42398438 85.73484375 27.47296875 86.7196875 27.5234375 87.734375 C26.50592947 94.08241014 23.06704538 98.4236988 18.05859375 102.31640625 C16.52815937 103.41243786 14.98717522 104.493846 13.4375 105.5625 C11.72705052 106.78141055 10.01744195 108.00150181 8.30859375 109.22265625 C7.43058105 109.84414551 6.55256836 110.46563477 5.64794922 111.10595703 C1.37530439 114.16212323 -2.80920871 117.3330391 -7 120.5 C-18.16168235 128.89511151 -29.40939912 137.17192662 -40.67578125 145.42578125 C-49.11879809 151.61925938 -57.49873554 157.88380562 -65.8125 164.25 C-72.03467144 169.01408732 -78.28910816 173.70043388 -84.69580078 178.21289062 C-90.64040445 182.41561948 -96.44192118 186.805871 -102.25708008 191.18505859 C-108.06259272 195.55442164 -113.89435234 199.88558672 -119.75 204.1875 C-125.52234096 208.42917517 -131.27621546 212.69301509 -137 217 C-142.74762294 221.3234969 -148.52060804 225.61098343 -154.3125 229.875 C-155.10640137 230.45950928 -155.90030273 231.04401855 -156.71826172 231.64624023 C-160.75352453 234.6154539 -164.79162068 237.58076452 -168.83203125 240.54296875 C-170.4298759 241.71588922 -172.02753353 242.88906451 -173.625 244.0625 C-174.78950684 244.91714844 -174.78950684 244.91714844 -175.97753906 245.7890625 C-179.98554629 248.74109789 -183.96273767 251.72668222 -187.90234375 254.76953125 C-188.68593262 255.37466553 -189.46952148 255.9797998 -190.27685547 256.60327148 C-191.77033616 257.76095034 -193.26040784 258.92304411 -194.74658203 260.09008789 C-195.40899902 260.60434326 -196.07141602 261.11859863 -196.75390625 261.6484375 C-197.33470947 262.10395996 -197.9155127 262.55948242 -198.51391602 263.02880859 C-200 264 -200 264 -202 264 C-200.66477642 261.14027433 -199.15297638 258.74467382 -197.19921875 256.26953125 C-196.64073242 255.55756592 -196.08224609 254.84560059 -195.50683594 254.11206055 C-194.90645508 253.35320557 -194.30607422 252.59435059 -193.6875 251.8125 C-192.41475104 250.19058544 -191.14263029 248.56817774 -189.87109375 246.9453125 C-189.2251123 246.12192383 -188.57913086 245.29853516 -187.91357422 244.45019531 C-184.99802464 240.71704201 -182.12192282 236.95425985 -179.25 233.1875 C-178.17582166 231.77991708 -177.10160373 230.37236437 -176.02734375 228.96484375 C-175.26139893 227.96106689 -175.26139893 227.96106689 -174.47998047 226.93701172 C-170.66746461 221.94715675 -166.8314782 216.97529632 -163 212 C-161.33304708 209.83355349 -159.66652587 207.66677503 -158 205.5 C-157.16667453 204.41666062 -156.3333412 203.33332728 -155.5 202.25 C-154.88125 201.445625 -154.88125 201.445625 -154.25 200.625 C-132.375 172.1875 -132.375 172.1875 -110.5 143.75 C-110.08782227 143.21415283 -109.67564453 142.67830566 -109.25097656 142.1262207 C-108.4144509 141.03876999 -107.57786197 139.95136793 -106.74121094 138.86401367 C-104.70620712 136.21906213 -102.67243467 133.57318888 -100.640625 130.92578125 C-95.84624905 124.68212498 -91.02588912 118.45961933 -86.1875 112.25 C-79.90305059 104.1824492 -73.68354062 96.06682722 -67.47998047 87.93701172 C-63.66746461 82.94715675 -59.8314782 77.97529632 -56 73 C-54.33304708 70.83355349 -52.66652587 68.66677503 -51 66.5 C-50.16667453 65.41666062 -49.3333412 64.33332728 -48.5 63.25 C-48.0875 62.71375 -47.675 62.1775 -47.25 61.625 C-23.5 30.75 -23.5 30.75 -22.24902344 29.1237793 C-21.41888234 28.04456341 -20.58880382 26.96529938 -19.75878906 25.88598633 C-17.62713521 23.11425024 -15.49427399 20.34345629 -13.359375 17.57421875 C-8.86711521 11.74495702 -4.3972279 5.90154271 0 0 Z " fill="#FBA225" transform="translate(459,205)"/>
<path d="M0 0 C2.49809447 2.43207292 4.78067312 4.87170299 6.8828125 7.65234375 C7.40512451 8.33973633 7.92743652 9.02712891 8.46557617 9.73535156 C9.01318604 10.46206055 9.5607959 11.18876953 10.125 11.9375 C11.2901987 13.47278216 12.45556486 15.00793724 13.62109375 16.54296875 C14.19456543 17.30013184 14.76803711 18.05729492 15.35888672 18.83740234 C17.6214038 21.81886267 19.9024131 24.7858239 22.1875 27.75 C22.98542969 28.78640625 23.78335938 29.8228125 24.60546875 30.890625 C25.39566406 31.91671875 26.18585938 32.9428125 27 34 C28.66695292 36.16644651 30.33347413 38.33322497 32 40.5 C32.83332547 41.58333938 33.6666588 42.66667272 34.5 43.75 C39.5 50.25 39.5 50.25 40.74902344 51.8737793 C41.5855491 52.96123001 42.42213803 54.04863207 43.25878906 55.13598633 C45.29379288 57.78093787 47.32756533 60.42681112 49.359375 63.07421875 C54.15375095 69.31787502 58.97411088 75.54038067 63.8125 81.75 C70.09694941 89.8175508 76.31645938 97.93317278 82.52001953 106.06298828 C86.33253539 111.05284325 90.1685218 116.02470368 94 121 C95.66695292 123.16644651 97.33347413 125.33322497 99 127.5 C99.83332547 128.58333938 100.6666588 129.66667272 101.5 130.75 C126.5 163.25 151.5 195.75 176.5 228.25 C176.91258057 228.78633057 177.32516113 229.32266113 177.75024414 229.87524414 C178.58285808 230.95769106 179.41537775 232.0402105 180.24780273 233.12280273 C182.34137244 235.84530322 184.43660817 238.56649085 186.53515625 241.28515625 C192.08440896 248.47867156 197.56774406 255.71762791 203 263 C199.29883494 263 198.4789845 262.10102436 195.60546875 259.8515625 C194.73978271 259.18116943 193.87409668 258.51077637 192.98217773 257.82006836 C191.59881226 256.73350952 191.59881226 256.73350952 190.1875 255.625 C188.2668672 254.13771739 186.34499225 252.65203747 184.421875 251.16796875 C183.48666016 250.44528809 182.55144531 249.72260742 181.58789062 248.97802734 C177.89198445 246.15309981 174.11194923 243.46815066 170.30810547 240.79052734 C165.23836898 237.20432785 160.27341572 233.48487705 155.3125 229.75 C148.71095713 224.78007424 142.09339906 219.83444345 135.4375 214.9375 C134.65656982 214.36273926 133.87563965 213.78797852 133.07104492 213.19580078 C129.15835075 210.31795219 125.24234125 207.44467114 121.32421875 204.57421875 C111.9657822 197.70922331 102.69941012 190.73717019 93.48486328 183.68017578 C88.18846947 179.63485215 82.83897706 175.69593368 77.38549805 171.86621094 C71.98588438 168.04764718 66.74808333 164.02317484 61.5 160 C55.17437953 155.15183136 48.82124527 150.37694244 42.30541992 145.78808594 C37.23589436 142.20367755 32.27243878 138.48414155 27.3125 134.75 C20.71093702 129.7800591 14.09216466 124.83613973 7.4375 119.9375 C6.66817139 119.36854004 5.89884277 118.79958008 5.10620117 118.21337891 C1.02043329 115.19697144 -3.0889806 112.22148089 -7.23828125 109.29296875 C-8.09800537 108.67881104 -8.95772949 108.06465332 -9.84350586 107.43188477 C-11.47774756 106.26542485 -13.1200118 105.11008658 -14.77172852 103.96850586 C-19.80309587 100.35550076 -23.74211922 96.8762891 -26 91 C-27.21865388 81.765659 -24.81460483 73.76815571 -21.8359375 65.1171875 C-21.40034218 63.81034495 -20.96634566 62.50296854 -20.53384399 61.19509888 C-19.39781401 57.7739318 -18.24062473 54.36031056 -17.07849121 50.94793701 C-15.91837256 47.52948225 -14.77834635 44.10435208 -13.63671875 40.6796875 C-11.48915702 34.24692187 -9.32120138 27.82126862 -7.14733887 21.39733887 C-5.53594737 16.62591246 -3.94131693 11.84898443 -2.3515625 7.0703125 C-2.10522064 6.33021942 -1.85887878 5.59012634 -1.60507202 4.8276062 C-1.06968884 3.2185236 -0.53477517 1.60928478 0 0 Z " fill="#FBA225" transform="translate(52,205)"/>
</svg>
