<?xml version="1.0" standalone="no"?>
<!DOCTYPE svg PUBLIC "-//W3C//DTD SVG 20010904//EN"
 "http://www.w3.org/TR/2001/REC-SVG-20010904/DTD/svg10.dtd">
<svg version="1.0" xmlns="http://www.w3.org/2000/svg"
 width="800.000000pt" height="800.000000pt" viewBox="0 0 800.000000 800.000000"
 preserveAspectRatio="xMidYMid meet">

<g transform="translate(0.000000,800.000000) scale(0.100000,-0.100000)"
fill="#000000" stroke="none">
<path d="M2215 5628 c0 -220 -87 -368 -319 -545 -316 -241 -481 -395 -531
-497 -36 -73 -36 -141 0 -210 49 -94 139 -208 272 -345 l132 -136 -73 112
c-141 215 -193 355 -168 451 29 108 122 220 369 443 227 205 276 258 317 341
46 93 60 168 53 288 -6 98 -17 153 -39 183 -11 14 -13 0 -13 -85z"/>
<path d="M2550 5013 c-148 -54 -258 -96 -292 -114 -166 -83 -307 -194 -367
-288 -17 -26 -38 -78 -47 -114 -16 -62 -16 -72 0 -134 21 -86 43 -127 123
-236 81 -108 103 -151 103 -197 0 -40 -26 -99 -64 -149 -14 -19 -24 -37 -21
-39 3 -3 39 21 81 53 111 86 174 178 174 256 0 50 -41 140 -108 238 -134 195
-128 258 37 421 75 75 187 157 407 297 14 9 15 12 4 12 -8 0 -22 -3 -30 -6z"/>
<path d="M3847 3668 c-3 -766 -2 -751 -56 -856 -31 -60 -92 -124 -145 -153
l-44 -23 51 -58 c28 -32 58 -58 66 -58 7 0 46 15 85 34 136 66 235 204 270
378 14 65 16 183 16 763 l0 685 -120 0 -119 0 -4 -712z"/>
<path d="M4535 3986 c-101 -22 -205 -58 -205 -71 0 -3 7 -32 16 -64 l16 -58
61 19 c168 52 337 59 422 18 63 -30 95 -97 95 -196 l0 -72 -72 -6 c-293 -26
-357 -41 -459 -109 -102 -67 -143 -151 -137 -273 7 -138 72 -234 177 -264 92
-26 190 -32 261 -16 73 16 161 57 220 100 39 30 44 26 55 -41 l7 -43 89 0 90
0 -3 428 -3 427 -33 68 c-38 77 -92 123 -177 153 -84 29 -284 29 -420 0z m405
-698 l0 -133 -48 -32 c-99 -68 -190 -92 -270 -71 -75 19 -122 83 -122 167 0
138 101 196 348 200 l92 1 0 -132z"/>
<path d="M6710 3989 c-52 -10 -123 -29 -158 -41 -71 -25 -69 -19 -42 -119 l10
-37 62 19 c34 11 99 26 146 34 258 45 372 -23 372 -222 0 -53 -3 -63 -17 -63
-100 -2 -339 -33 -390 -50 -130 -45 -220 -126 -254 -228 -19 -59 -7 -188 24
-249 45 -87 109 -124 250 -144 75 -10 95 -10 159 6 82 20 169 60 217 101 27
22 34 25 42 13 5 -8 9 -23 9 -34 1 -62 5 -65 102 -65 l89 0 -3 428 c-3 416 -4
428 -25 475 -44 95 -100 143 -207 176 -88 27 -250 27 -386 0z m390 -701 l0
-133 -48 -32 c-69 -46 -101 -60 -161 -71 -140 -25 -231 39 -231 163 0 97 42
151 140 179 69 20 93 23 208 25 l92 1 0 -132z"/>
<path d="M5320 3983 c0 -4 80 -247 177 -540 l177 -533 147 0 146 0 41 88 c75
162 127 307 196 547 45 155 106 403 106 430 0 13 -19 15 -120 15 l-120 0 0
-33 c0 -104 -81 -422 -176 -694 -24 -69 -44 -127 -44 -129 0 -2 -4 -4 -9 -4
-5 0 -11 18 -15 40 -8 51 -34 136 -158 513 l-101 307 -123 0 c-68 0 -124 -3
-124 -7z"/>
<path d="M7373 3983 c12 -3 17 -16 19 -41 l1 -37 4 35 c3 19 10 38 16 42 7 4
-4 7 -23 7 -19 -1 -27 -3 -17 -6z"/>
<path d="M7451 3948 l2 -43 7 35 7 35 15 -34 16 -35 18 35 18 34 7 -35 6 -35
2 43 c1 48 -22 60 -33 17 -4 -14 -10 -25 -15 -25 -4 0 -13 11 -19 25 -18 38
-32 30 -31 -17z"/>
<path d="M2797 3851 c-59 -12 -53 -18 25 -23 200 -13 282 -164 182 -334 -33
-55 -155 -171 -244 -230 -74 -50 -84 -60 -47 -49 119 36 273 118 351 186 167
147 151 337 -37 428 -51 25 -165 36 -230 22z"/>
<path d="M1085 3781 c-179 -46 -316 -104 -329 -138 -15 -37 165 -75 439 -93
309 -19 570 -11 940 30 260 29 306 38 372 76 32 18 53 34 48 34 -6 0 -73 -9
-150 -19 -321 -45 -498 -56 -860 -56 -250 0 -371 4 -423 13 -160 30 -141 87
52 153 108 37 57 37 -89 0z"/>
<path d="M1131 3388 c-41 -20 -81 -67 -81 -95 0 -45 108 -85 299 -110 178 -23
597 -23 741 -1 127 21 330 68 329 77 0 3 -25 22 -55 42 l-55 35 -127 -18
c-204 -28 -438 -41 -670 -36 -193 4 -222 7 -264 25 -51 23 -72 50 -57 74 22
35 2 38 -60 7z"/>
<path d="M1243 3016 c-28 -14 -59 -37 -69 -51 -16 -25 -16 -30 -3 -54 44 -78
277 -130 584 -131 187 0 369 27 569 85 l54 16 -91 47 -91 48 -61 -13 c-114
-24 -299 -35 -529 -31 -217 4 -234 5 -275 27 -38 20 -43 26 -39 52 3 16 4 29
4 29 -1 0 -24 -11 -53 -24z"/>
<path d="M898 2773 c7 -3 16 -2 19 1 4 3 -2 6 -13 5 -11 0 -14 -3 -6 -6z"/>
<path d="M720 2745 c-190 -47 -278 -105 -254 -168 17 -44 201 -87 484 -113
266 -25 975 -25 1256 -1 402 35 681 105 777 195 26 25 38 72 17 72 -5 0 -10
-9 -10 -19 0 -23 -38 -52 -100 -75 -97 -35 -246 -58 -601 -91 -104 -10 -534
-25 -719 -25 -316 0 -683 36 -818 81 -49 16 -63 26 -68 45 -11 42 31 73 141
105 52 15 56 18 25 18 -19 0 -78 -11 -130 -24z"/>
<path d="M3115 2528 c-166 -101 -475 -175 -845 -203 -193 -14 -662 -17 -865
-4 -291 17 -331 18 -298 8 76 -22 304 -50 506 -61 442 -24 1028 29 1282 115
121 42 241 112 265 157 6 11 9 20 8 19 -2 0 -25 -14 -53 -31z"/>
</g>
</svg>
