<?xml version="1.0" standalone="no"?>
<!DOCTYPE svg PUBLIC "-//W3C//DTD SVG 20010904//EN"
 "http://www.w3.org/TR/2001/REC-SVG-20010904/DTD/svg10.dtd">
<svg version="1.0" xmlns="http://www.w3.org/2000/svg"
 width="426.000000pt" height="362.000000pt" viewBox="0 0 426.000000 362.000000"
 preserveAspectRatio="xMidYMid meet">

<g transform="translate(0.000000,362.000000) scale(0.100000,-0.100000)"
fill="#000000" stroke="none">
<path d="M2050 3474 c-40 -69 -117 -198 -171 -286 -55 -88 -115 -188 -135
-221 -19 -34 -53 -91 -75 -127 -21 -36 -37 -71 -34 -78 3 -7 1 -10 -5 -7 -7 4
-80 -94 -80 -109 0 -2 -27 -47 -60 -99 -33 -53 -60 -101 -60 -106 0 -6 -4 -11
-9 -11 -5 0 -17 -17 -26 -37 -10 -21 -26 -49 -35 -63 -26 -37 -335 -541 -350
-570 -7 -14 -46 -75 -87 -136 -40 -62 -73 -116 -73 -122 0 -6 -3 -12 -7 -14
-7 -3 -83 -121 -147 -228 -41 -69 -50 -83 -68 -112 -10 -14 -18 -29 -18 -32 0
-7 3025 -8 3032 -1 7 7 -117 216 -134 227 -7 4 -10 8 -6 8 8 0 -10 29 -127
210 -34 52 -96 154 -139 225 -43 72 -88 146 -100 165 -72 112 -132 209 -247
398 -154 250 -199 326 -205 345 -4 9 -10 17 -14 17 -4 0 -10 8 -14 18 -3 9
-31 58 -62 107 -31 50 -64 104 -73 120 -9 17 -43 74 -76 128 -70 115 -68 111
-177 292 -46 77 -95 159 -108 183 -13 23 -27 42 -30 42 -4 0 -40 -57 -80 -126z
m110 -112 c0 -7 12 -31 27 -55 44 -68 52 -80 67 -112 8 -16 23 -40 33 -52 10
-11 24 -29 30 -40 53 -78 66 -100 88 -143 13 -26 30 -54 37 -61 8 -8 21 -30
31 -50 9 -20 23 -42 32 -49 8 -7 12 -16 10 -21 -3 -4 1 -11 9 -16 7 -4 25 -32
40 -60 14 -29 30 -53 35 -53 5 0 23 -29 41 -64 17 -36 35 -66 39 -68 11 -4 86
-121 83 -130 -1 -5 3 -8 8 -8 6 0 10 -9 10 -19 0 -11 4 -21 8 -23 11 -4 72
-94 72 -106 0 -5 9 -17 20 -27 10 -9 19 -20 18 -24 -3 -13 15 -61 22 -61 8 0
88 -115 110 -159 10 -19 14 -21 22 -10 8 11 9 10 4 -4 -6 -18 12 -67 25 -67 4
0 11 -9 14 -20 4 -11 18 -34 32 -50 13 -17 21 -30 16 -30 -4 0 -1 -6 7 -13 9
-7 26 -32 39 -57 13 -25 31 -54 41 -65 10 -11 29 -43 44 -72 14 -28 30 -54 36
-58 6 -4 8 -10 5 -15 -3 -5 1 -12 8 -17 14 -8 41 -51 42 -65 0 -4 12 -19 26
-32 15 -14 30 -41 33 -61 4 -19 11 -33 17 -30 5 4 6 11 3 17 -4 7 -2 8 4 4 6
-4 9 -13 5 -21 -3 -8 -1 -15 3 -15 5 0 15 -13 22 -30 7 -16 33 -42 57 -57 68
-43 53 -47 -25 -7 l-70 35 -1335 0 c-734 -1 -1335 1 -1335 3 0 1 11 16 24 31
23 26 23 29 7 44 -9 9 -11 12 -4 8 17 -12 64 42 59 66 -3 12 0 17 8 14 7 -3
22 15 36 42 14 25 27 48 30 51 13 13 50 70 74 115 14 28 39 68 56 90 16 22 34
51 40 65 6 13 15 27 19 30 12 8 88 133 95 158 4 12 13 22 19 22 7 0 25 28 41
63 16 34 37 71 46 82 10 11 26 36 37 55 10 19 31 54 46 77 15 24 27 45 27 48
0 3 4 11 10 18 47 58 60 77 65 100 4 15 10 25 14 22 4 -2 23 25 42 60 19 36
37 65 42 65 4 0 7 7 7 15 0 8 10 23 22 35 12 11 18 20 14 20 -4 0 6 17 22 38
29 36 32 42 32 62 0 6 6 10 14 10 8 0 17 12 20 28 4 15 16 38 27 52 10 14 38
57 61 95 23 39 50 77 60 86 10 9 22 34 27 55 5 21 9 32 10 25 1 -8 13 5 29 30
15 25 33 54 40 65 6 10 17 30 22 43 6 13 18 30 28 37 9 8 13 14 8 14 -5 0 -3
7 4 15 13 15 41 62 61 102 10 18 15 20 30 10 11 -7 19 -18 19 -25z"/>
<path d="M3380 1240 c0 -5 5 -10 11 -10 5 0 7 5 4 10 -3 6 -8 10 -11 10 -2 0
-4 -4 -4 -10z"/>
<path d="M60 840 c0 -7 697 -10 2070 -10 1373 0 2070 3 2070 10 0 7 -697 10
-2070 10 -1373 0 -2070 -3 -2070 -10z"/>
<path d="M1835 697 c-83 -27 -125 -73 -125 -136 0 -98 61 -124 337 -146 89 -6
117 -17 139 -50 16 -24 16 -29 1 -60 -14 -29 -25 -37 -74 -51 -86 -25 -207
-15 -303 24 l-75 30 -22 -26 -22 -26 27 -18 c122 -81 400 -91 503 -17 39 28
59 69 59 121 0 102 -62 130 -343 157 -109 11 -147 28 -147 66 0 56 66 80 199
72 63 -3 116 -13 154 -27 56 -21 59 -21 78 -4 30 27 23 39 -43 70 -56 25 -76
28 -183 31 -80 2 -133 -2 -160 -10z"/>
<path d="M3773 701 c-49 -13 -96 -44 -121 -82 -43 -62 -12 -145 62 -168 35
-11 154 -27 267 -36 91 -8 139 -32 139 -71 0 -64 -48 -94 -164 -101 -93 -6
-168 7 -244 42 l-54 25 -19 -23 c-10 -12 -18 -25 -19 -29 0 -17 93 -60 161
-74 98 -21 255 -14 320 14 82 36 124 112 100 184 -22 67 -108 99 -306 113
-150 11 -204 40 -175 95 18 33 71 50 157 50 86 -1 148 -12 206 -37 36 -16 38
-16 62 7 31 30 22 42 -53 71 -44 17 -83 23 -172 25 -63 2 -129 -1 -147 -5z"/>
<path d="M90 440 l0 -260 275 0 275 0 0 35 0 35 -232 2 -233 3 -3 78 -3 77
156 0 155 0 0 40 0 40 -155 0 -156 0 3 68 3 67 223 3 223 2 -3 33 -3 32 -262
3 -263 2 0 -260z"/>
<path d="M870 440 l0 -260 40 0 40 0 0 210 c0 116 4 210 9 210 10 0 135 -130
291 -303 l105 -116 53 0 52 -1 0 261 0 260 -37 -3 -38 -3 -5 -214 -5 -214 -44
49 c-25 27 -97 105 -161 174 -64 69 -134 144 -155 168 -35 40 -40 42 -91 42
l-54 0 0 -260z"/>
<path d="M2522 443 l3 -258 38 -3 37 -3 0 260 0 261 -40 0 -40 0 2 -257z"/>
<path d="M2946 445 c-75 -140 -136 -258 -136 -261 0 -3 19 -4 43 -2 40 3 43 6
72 60 l30 58 180 0 180 0 31 -58 c29 -54 32 -57 73 -60 24 -2 41 1 40 6 -2 4
-64 122 -138 260 l-134 252 -52 0 -53 0 -136 -255z m252 78 c33 -60 63 -118
66 -130 l7 -23 -135 0 c-75 0 -136 3 -136 6 0 9 130 254 135 254 2 0 30 -48
63 -107z"/>
<path d="M60 70 c0 -7 697 -10 2070 -10 1373 0 2070 3 2070 10 0 7 -697 10
-2070 10 -1373 0 -2070 -3 -2070 -10z"/>
</g>
</svg>
